<svg width="119" height="46" viewBox="0 0 119 46" fill="none" xmlns="http://www.w3.org/2000/svg">
<path d="M61.331 26.2646H0L5.38313 0H66.7141L61.331 26.2646Z" fill="#82B9C6"/>
<path d="M15.6252 23.1864C14.4651 23.1864 13.4271 22.9508 12.5215 22.4796C11.6158 22.0083 10.8526 21.3732 10.2217 20.5845C9.59077 19.7957 9.1125 18.8943 8.79704 17.8802C8.47141 16.8661 8.30859 15.8212 8.30859 14.7456C8.30859 13.8339 8.44088 12.912 8.71564 11.9798C8.98021 11.0477 9.3669 10.1565 9.85535 9.28578C10.3438 8.42531 10.9442 7.61607 11.6463 6.86828C12.3485 6.1205 13.132 5.47515 14.0072 4.91175C14.8721 4.3586 15.8185 3.90788 16.8361 3.59033C17.8537 3.26253 18.9222 3.09863 20.0517 3.09863C21.8224 3.09863 23.2775 3.49813 24.4071 4.29714C25.5366 5.09614 26.2795 6.14099 26.656 7.42144L22.6365 9.87991C22.5449 9.35748 22.3821 8.92725 22.148 8.57897C21.914 8.23068 21.6392 7.95411 21.3034 7.73899C20.9676 7.52388 20.6114 7.38046 20.2247 7.28827C19.838 7.20632 19.4615 7.16535 19.085 7.16535C18.1285 7.16535 17.2635 7.39071 16.5105 7.85167C15.7575 8.31263 15.1062 8.89652 14.5872 9.61357C14.0581 10.3306 13.6612 11.1194 13.3763 11.9696C13.1015 12.8301 12.959 13.6496 12.959 14.4486C12.959 15.0837 13.0405 15.6778 13.1931 16.2309C13.3457 16.7841 13.5798 17.286 13.8851 17.706C14.1903 18.1363 14.577 18.4743 15.035 18.7201C15.4929 18.9762 16.022 19.0992 16.6122 19.0992C16.9989 19.0992 17.406 19.0479 17.8232 18.9455C18.2404 18.8431 18.6576 18.6894 19.0748 18.4743C19.4921 18.2592 19.8889 17.9826 20.2654 17.6343C20.642 17.286 20.9676 16.8661 21.2525 16.3641L24.519 18.5665C24.0713 19.2938 23.5116 19.9391 22.8298 20.523C22.148 21.0967 21.4052 21.5884 20.6012 21.9776C19.7973 22.3669 18.9629 22.6639 18.1081 22.8688C17.2228 23.0839 16.4087 23.1864 15.6252 23.1864Z" fill="white"/>
<path d="M34.7548 3.20117H38.8863L41.4405 23.0123H36.7799L36.3626 18.5768H30.7658L28.5169 23.0123H23.8359L34.7548 3.20117ZM36.2812 15.4218L35.7317 8.41517L32.1294 15.4218H36.2812Z" fill="white"/>
<path d="M47.4835 3.20117H52.0322L48.6741 18.9968H57.568L56.7336 23.0123H43.291L47.4835 3.20117Z" fill="white"/>
<path d="M113.505 45.2558H52.1738L57.557 18.9912H118.888L113.505 45.2558Z" fill="#FDB714"/>
<path d="M69.2839 22.2285H73.8326L69.6503 42.0397H65.1016L69.2839 22.2285Z" fill="#136C97"/>
<path d="M81.0043 26.244H75.377L76.2114 22.2285H91.9842L91.1498 26.244H85.553L82.1949 42.0397H77.6462L81.0043 26.244Z" fill="#136C97"/>
<path d="M94.3972 22.2285H102.406C103.159 22.2285 103.851 22.3822 104.461 22.6997C105.072 23.0173 105.581 23.4373 105.998 23.9597C106.415 24.4821 106.731 25.0762 106.954 25.7421C107.178 26.4079 107.29 27.1045 107.29 27.8113C107.29 28.7639 107.087 29.7064 106.68 30.6488C106.273 31.5912 105.723 32.4209 105.031 33.1585C104.339 33.896 103.535 34.4901 102.619 34.9613C101.704 35.4223 100.727 35.6579 99.6989 35.6579H96.0966L94.7635 42.0499H90.2148L94.3972 22.2285ZM100.248 31.6629C100.523 31.6629 100.808 31.5809 101.093 31.4273C101.378 31.2736 101.643 31.038 101.866 30.7307C102.1 30.4234 102.284 30.0649 102.416 29.6449C102.558 29.2249 102.619 28.7435 102.619 28.2108C102.619 27.545 102.477 27.0533 102.202 26.7357C101.927 26.4182 101.602 26.2645 101.235 26.2645H98.0707L96.931 31.6834H100.248V31.6629Z" fill="#136C97"/>
</svg>
