<svg width="431" height="403" viewBox="0 0 431 403" fill="none" xmlns="http://www.w3.org/2000/svg">
<g filter="url(#filter0_d)">
<path d="M11.4435 156.31C11.4435 133.17 11.4435 121.6 14.4826 115.515C20.9942 102.476 36.209 96.3422 49.9431 101.22C56.3532 103.496 64.3773 111.831 80.4256 128.501L87.052 135.384L124.856 174.653L162.66 213.923L264.849 320.07C276.339 332.006 282.085 337.974 283.618 342.751C286.901 352.977 282.185 364.063 272.541 368.791C268.036 370.999 259.752 370.999 243.184 370.999H74.0938C57.7367 370.999 49.5582 370.999 42.9247 368.901C28.9302 364.475 17.9673 353.512 13.5414 339.518C11.4435 332.884 11.4435 324.706 11.4435 308.349V156.31Z" fill="#C64E5A"/>
</g>
<mask id="mask0" mask-type="alpha" maskUnits="userSpaceOnUse" x="11" y="88" width="274" height="283">
<path d="M11.4435 110.514C11.4435 91.0403 35.1585 81.4801 48.664 95.509L83.3519 131.541C85.7822 134.065 88.7894 135.962 92.1147 137.067L147.849 155.59C156.693 158.529 162.66 166.801 162.66 176.12V205.201C162.66 210.797 164.828 216.174 168.709 220.206L278.605 334.36C291.836 348.103 282.096 370.999 263.019 370.999H33.0782C21.1297 370.999 11.4435 361.313 11.4435 349.364V110.514Z" fill="#C4C4C4"/>
</mask>
<g mask="url(#mask0)">
<rect x="87.676" y="198.293" width="18.2095" height="212.225" fill="#E5E9EC" stroke="#323A45"/>
<path d="M53.8112 170.32C47.5608 170.32 42.4939 175.387 42.4939 181.637V284.966C42.4939 300.178 54.8254 312.509 70.0371 312.509H122.563C137.775 312.509 150.106 300.178 150.106 284.966V181.637C150.106 175.387 145.039 170.32 138.789 170.32H53.8112Z" fill="#323A45" stroke="#323A45"/>
<g filter="url(#filter1_i)">
<path d="M42.9944 174.034C42.9944 168.059 47.8375 163.216 53.8117 163.216H138.79C144.764 163.216 149.607 168.059 149.607 174.034V277.363C149.607 292.298 137.499 304.406 122.564 304.406H70.0377C55.1021 304.406 42.9944 292.298 42.9944 277.363V174.034Z" fill="#545C68"/>
</g>
<path d="M53.8117 162.716C47.5613 162.716 42.4944 167.783 42.4944 174.034V277.363C42.4944 292.574 54.8259 304.906 70.0377 304.906H122.564C137.775 304.906 150.107 292.574 150.107 277.363V174.034C150.107 167.783 145.04 162.716 138.79 162.716H53.8117Z" stroke="#323A45"/>
<rect x="52.7907" y="174.122" width="88.4435" height="78.3051" rx="7.71154" fill="#323A45" stroke="#323A45"/>
<circle cx="97.1187" cy="206.041" r="20.5135" fill="#00775D" stroke="#323A45"/>
<path d="M108.624 200.983C109.348 200.26 109.348 199.087 108.624 198.364C107.901 197.64 106.728 197.64 106.005 198.364L93.669 210.7L89.0656 206.096C88.3423 205.373 87.1696 205.373 86.4463 206.096C85.7229 206.82 85.7229 207.992 86.4463 208.716L92.3594 214.629C92.7067 214.976 93.1778 215.171 93.669 215.171C94.1603 215.171 94.6314 214.976 94.9787 214.629L108.624 200.983Z" fill="white" stroke="#323A45" stroke-linecap="round" stroke-linejoin="round"/>
<path d="M98.0759 326.528C98.2862 326.488 98.4698 326.447 98.6201 326.41L101.046 332.669C100.941 332.725 100.821 332.792 100.692 332.871C100.244 333.147 99.6668 333.576 99.186 334.181C98.7019 334.792 98.3118 335.587 98.2584 336.578C98.2051 337.568 98.4903 338.705 99.2713 339.995C100.506 342.034 102.592 342.418 104.673 342.801C104.779 342.82 104.884 342.84 104.99 342.859C105.703 342.992 106.445 343.1 107.207 343.094C108.725 343.083 110.804 342.948 112.986 342.806C113.754 342.757 114.534 342.706 115.307 342.66C118.309 342.479 121.194 342.364 122.944 342.581C123.635 342.666 124.287 342.983 124.96 343.389C130.669 346.831 133.764 349.057 138.524 353.036C142.588 356.596 146.359 358.992 152.75 362.551C155.06 363.837 157.684 364.356 160.29 364.343C163.165 364.329 165.651 364.573 169.367 365.116C183.258 367.764 190.999 370.698 204.865 376.185L205.265 376.343L205.481 375.971L225.746 341.086L226.078 340.515L225.438 340.351C198.085 333.32 190.375 330.947 185.382 328.561C181.743 326.808 179.982 325.882 178.625 324.601C172.294 316.241 169.269 312.488 164.339 307.02L164.339 307.02L164.331 307.012C155.248 297.38 150.845 293.33 143.383 286.982L143.331 286.938L143.27 286.91L123.295 277.582L123.039 277.462L122.804 277.62L88.9886 300.315C88.9765 300.32 88.9627 300.325 88.9474 300.331C88.8823 300.355 88.7885 300.39 88.671 300.437C88.4359 300.531 88.1049 300.671 87.7162 300.856C86.9414 301.225 85.9251 301.779 84.9821 302.515C84.0432 303.249 83.145 304.187 82.652 305.335C82.1503 306.503 82.0838 307.853 82.7594 309.344C83.302 310.541 84.2902 311.274 85.4098 311.704C86.5218 312.131 87.7891 312.27 88.9611 312.277C90.1377 312.283 91.2479 312.154 92.0611 312.026C92.4359 311.966 92.7494 311.906 92.9796 311.859L94.4494 315.651C94.2776 315.732 94.0655 315.837 93.8275 315.967C93.2091 316.305 92.4027 316.815 91.6772 317.497C90.9532 318.177 90.2851 319.052 89.9883 320.123C89.6872 321.209 89.7821 322.445 90.5009 323.803C91.7083 326.083 93.926 326.678 95.734 326.728C96.6423 326.753 97.4739 326.643 98.0759 326.528Z" fill="#996D61" stroke="#323A45"/>
<path d="M65.9876 240.845C64.9151 238.078 66.2886 234.965 69.0556 233.893L110.362 217.881C113.129 216.809 116.241 218.182 117.314 220.949L153.46 314.2C154.533 316.967 153.159 320.08 150.392 321.152L109.086 337.164C106.319 338.236 103.207 336.863 102.134 334.096L65.9876 240.845Z" fill="#545C68"/>
<path fill-rule="evenodd" clip-rule="evenodd" d="M64.3076 241.496C62.8754 237.801 64.7096 233.645 68.4044 232.213L109.711 216.201C113.405 214.769 117.562 216.603 118.994 220.298L155.14 313.549C156.573 317.244 154.738 321.4 151.044 322.832L109.737 338.844C106.043 340.276 101.886 338.442 100.454 334.747L64.3076 241.496ZM69.7068 235.573C67.8677 236.286 66.9547 238.354 67.6676 240.193L103.814 333.444C104.527 335.284 106.596 336.196 108.435 335.484L149.741 319.472C151.58 318.759 152.493 316.691 151.78 314.851L115.634 221.601C114.921 219.761 112.852 218.848 111.013 219.561L69.7068 235.573Z" fill="#323A45"/>
<path fill-rule="evenodd" clip-rule="evenodd" d="M69.565 232.729L109.201 217.365C112.893 215.934 117.046 217.767 118.478 221.459L153.977 313.04C155.408 316.732 153.575 320.885 149.883 322.316L110.247 337.68C106.555 339.111 102.402 337.278 100.97 333.586L65.4713 242.005C64.0401 238.313 65.873 234.16 69.565 232.729ZM69.8906 233.569C66.6625 234.82 65.06 238.452 66.3113 241.68L101.81 333.261C103.062 336.489 106.693 338.091 109.921 336.84L149.557 321.476C152.785 320.225 154.388 316.593 153.137 313.365L117.638 221.784C116.386 218.556 112.755 216.954 109.527 218.205L69.8906 233.569Z" fill="#323A45"/>
<path d="M104.595 252.334L104.595 252.334C104.301 252.379 103.997 252.32 103.744 252.214C103.491 252.109 103.234 251.934 103.063 251.69L104.595 252.334ZM104.595 252.334C104.7 252.318 104.807 252.293 104.9 252.265C104.969 252.244 105.104 252.199 105.21 252.119L105.212 252.117L105.212 252.117C105.212 252.117 105.212 252.117 105.213 252.117L105.216 252.114L105.228 252.107C105.237 252.1 105.248 252.094 105.26 252.087C105.272 252.08 105.284 252.073 105.293 252.068C105.298 252.066 105.302 252.064 105.305 252.063C105.307 252.061 105.309 252.061 105.309 252.061C105.678 251.906 105.86 251.535 105.97 251.194C106.09 250.826 106.178 250.322 106.253 249.678C106.506 247.507 106.373 245.452 105.841 243.314L105.841 243.314C105.546 242.129 104.566 239.902 103.853 238.788C102.711 237.003 101.255 235.439 99.5535 234.169L99.5535 234.169C99.3345 234.006 99.1027 233.848 98.9034 233.723C98.8039 233.661 98.7088 233.604 98.6249 233.559C98.5511 233.52 98.4542 233.471 98.3623 233.444L98.3621 233.444C98.0313 233.347 97.6639 233.401 97.3661 233.505C97.0637 233.61 96.7477 233.797 96.5324 234.063L96.5324 234.063C96.3656 234.27 96.2644 234.532 96.2174 234.77C96.1722 234.999 96.1602 235.292 96.2668 235.547C96.3052 235.639 96.367 235.707 96.3822 235.724C96.3829 235.725 96.3836 235.726 96.3841 235.726C96.4117 235.757 96.4432 235.789 96.4739 235.819C96.5364 235.879 96.6172 235.951 96.7083 236.029C96.8917 236.187 97.1335 236.383 97.3909 236.581C99.6739 238.342 100.99 240.028 102.018 242.489C103.083 245.037 103.364 247.374 102.945 250.239L103.44 250.312M104.595 252.334L103.44 250.312M103.44 250.312L102.945 250.239M103.44 250.312L102.945 250.239M98.1632 250.973L98.1632 250.973C98.1587 250.874 98.1756 250.667 98.195 250.462C98.2163 250.236 98.2469 249.955 98.2815 249.673L98.2815 249.673C98.5595 247.409 98.1728 245.286 97.1696 243.473C96.3343 241.965 95.6032 241.12 94.1549 240C93.9031 239.805 93.6963 239.64 93.5343 239.496C93.3748 239.353 93.2334 239.208 93.1322 239.048C93.022 238.874 92.9643 238.69 92.962 238.487C92.96 238.304 93.0044 238.131 93.0486 237.984L93.0486 237.984C93.1793 237.549 93.5362 237.229 93.8934 237.045C94.254 236.86 94.7185 236.76 95.152 236.881L98.1632 250.973ZM98.1632 250.973C98.1833 251.416 98.4665 251.756 98.7736 251.955M98.1632 250.973L98.7736 251.955M95.0273 252.109L95.0269 252.109C94.5261 252.121 93.9729 251.894 93.6682 251.489L95.0273 252.109ZM95.0273 252.109C95.2708 252.102 95.5993 252.013 95.8122 251.893M95.0273 252.109L95.0142 251.609C95.1773 251.605 95.4258 251.536 95.5667 251.457M95.5667 251.457L95.8122 251.893M95.5667 251.457C96.0283 251.197 96.1747 250.873 96.3062 249.824L95.8122 251.893M95.5667 251.457L95.8122 251.893C95.8122 251.893 95.8122 251.893 95.8122 251.893M90.5448 252.015L90.5447 252.015C90.3025 252.028 90.0519 251.964 89.8463 251.876C89.6403 251.788 89.4204 251.653 89.2611 251.47L89.2609 251.47C89.0863 251.269 88.983 251.042 88.964 250.747C88.9474 250.49 88.9966 250.194 89.0735 249.849C89.1668 249.431 89.1932 249.168 89.1688 248.922C89.1442 248.672 89.064 248.402 88.8851 247.974C88.7062 247.546 88.5704 247.299 88.4104 247.106C88.2522 246.915 88.0469 246.75 87.6837 246.522L87.6837 246.522C87.5427 246.433 87.3974 246.333 87.2749 246.242C87.1647 246.16 87.0365 246.058 86.9579 245.97L86.9575 245.97C86.6409 245.615 86.6134 245.143 86.7205 244.761C86.829 244.373 87.0905 244.001 87.4721 243.764L90.5448 252.015ZM90.5448 252.015C90.9763 251.992 91.3575 251.825 91.658 251.519C91.9491 251.222 92.1395 250.821 92.2559 250.362C92.8935 247.848 91.8144 245.268 89.5761 243.941C89.2017 243.718 88.8477 243.559 88.4926 243.518M90.5448 252.015L88.4926 243.518M102.945 250.239C102.893 250.597 102.86 250.865 102.866 251.074M102.945 250.239L102.866 251.074M102.866 251.074C102.874 251.325 102.937 251.511 103.062 251.689L102.866 251.074ZM98.7736 251.955C99.0871 252.159 99.4969 252.268 99.9086 252.206M98.7736 251.955L99.9086 252.206M99.9086 252.206C100.181 252.164 100.44 252.072 100.668 251.901C100.896 251.731 101.066 251.505 101.195 251.237C101.442 250.722 101.559 249.999 101.618 249.066M99.9086 252.206L98.0889 239.153M101.618 249.066C101.857 245.314 100.619 241.826 98.0889 239.153M101.618 249.066L101.119 249.034L101.618 249.066ZM98.0889 239.153C97.6981 238.741 97.097 238.217 96.5508 237.787M98.0889 239.153L96.5508 237.787M96.5508 237.787C96.2761 237.57 96.0081 237.371 95.7799 237.218M96.5508 237.787L95.7799 237.218M95.7799 237.218C95.6661 237.141 95.5575 237.072 95.46 237.018M95.7799 237.218L95.46 237.018M95.46 237.018C95.371 236.968 95.2608 236.911 95.1521 236.881L95.46 237.018ZM88.4926 243.518C88.1118 243.474 87.7807 243.572 87.4721 243.764L88.4926 243.518ZM98.6627 250.95C98.6576 250.838 98.7095 250.291 98.7778 249.734L98.6627 250.95Z" fill="white" stroke="#323A45"/>
<rect x="85.9434" y="265.557" width="37.4772" height="22.2231" rx="2.29107" transform="rotate(-21.1876 85.9434 265.557)" fill="#ED9F2E" stroke="#323A45"/>
<rect x="94.1389" y="274.299" width="13.9276" height="1.98966" rx="0.994832" transform="rotate(-21.1876 94.1389 274.299)" fill="#323A45"/>
<rect x="95.5779" y="278.009" width="23.2127" height="1.98966" rx="0.994832" transform="rotate(-21.1876 95.5779 278.009)" fill="#323A45"/>
<path fill-rule="evenodd" clip-rule="evenodd" d="M69.565 232.729L109.201 217.365C112.893 215.934 117.046 217.767 118.478 221.459L153.977 313.04C155.408 316.732 153.575 320.885 149.883 322.316L110.247 337.68C106.555 339.111 102.402 337.278 100.97 333.586L65.4712 242.005C64.0401 238.313 65.8729 234.16 69.565 232.729ZM69.8906 233.569C66.6625 234.82 65.0599 238.452 66.3112 241.68L101.81 333.261C103.062 336.489 106.693 338.091 109.921 336.84L149.557 321.476C152.785 320.225 154.388 316.593 153.137 313.365L117.638 221.784C116.386 218.556 112.755 216.954 109.527 218.205L69.8906 233.569Z" fill="#323A45"/>
<path fill-rule="evenodd" clip-rule="evenodd" d="M65.5676 241.008C64.4051 238.009 65.8939 234.635 68.8928 233.473L110.199 217.461C113.198 216.299 116.571 217.788 117.734 220.787L153.88 314.037C155.043 317.036 153.554 320.41 150.555 321.572L109.249 337.584C106.25 338.746 102.877 337.257 101.714 334.258L65.5676 241.008ZM69.2184 234.313C66.6834 235.295 65.4249 238.147 66.4076 240.682L102.554 333.933C103.537 336.468 106.388 337.726 108.923 336.744L150.23 320.732C152.765 319.75 154.023 316.898 153.04 314.363L116.894 221.112C115.911 218.577 113.06 217.319 110.525 218.301L69.2184 234.313Z" fill="#323A45"/>
<path d="M148.209 302.029L148.216 302.053L148.225 302.077L149.052 304.209C149.168 304.51 148.902 304.793 148.612 304.717C147.065 304.314 145.657 303.886 144.305 303.476C143.708 303.295 143.123 303.117 142.542 302.946C140.652 302.391 138.824 301.915 136.879 301.666C134.76 301.395 132.706 302.185 131.092 303.481C128.253 305.76 126.109 307.588 124.227 309.193L124.204 309.213C122.331 310.81 120.723 312.182 118.94 313.565C118.132 314.191 117.609 315.192 117.734 316.267C117.949 318.103 118.483 319.526 119.454 320.499C120.433 321.48 121.785 321.934 123.479 321.985C125.165 322.035 127.238 321.687 129.726 321.019C132.176 320.363 135.058 319.388 138.416 318.148C140.601 319.016 142.206 319.521 145.687 320.221C145.854 320.255 145.981 320.388 146.006 320.552L146.372 322.949C146.372 322.95 146.372 322.95 146.372 322.95C147.214 328.569 148.349 332.901 150.102 336.979C151.853 341.055 154.213 344.858 157.482 349.422C158.344 350.625 159.545 351.538 160.92 352.068L201.052 367.54L201.061 367.543L201.069 367.546L269.088 390.97L269.448 391.094L269.663 390.78L292.186 357.897L292.643 357.229L291.841 357.119C272.486 354.469 256.873 349.191 242.472 344.148C241.744 343.893 241.018 343.639 240.296 343.385C226.741 338.63 214.137 334.208 200.389 332.624L200.36 332.621L200.331 332.621C189.738 332.621 181.756 326.266 175.42 319.299C173.037 316.679 170.905 313.994 168.956 311.539C168.313 310.729 167.69 309.944 167.084 309.195C165.868 307.69 164.721 306.329 163.633 305.214C162.574 304.127 161.548 303.251 160.545 302.705L145.014 286.893L143.664 285.518L144.175 287.376L148.209 302.029Z" fill="#996D61" stroke="#323A45"/>
<path d="M164.295 345.452L207.538 345.452L239.521 387.794L164.295 359.866L164.295 345.452Z" fill="#996D61"/>
<path d="M121.787 320.414C125.048 319.527 126.769 318.089 129.219 315.523C129.593 315.133 129.704 314.561 129.51 314.059L128.071 310.349C127.753 309.528 126.761 309.202 126.019 309.68C125.05 310.304 124.233 310.841 123.422 311.373C122.185 312.185 120.961 312.989 119.229 314.083C118.795 314.357 118.442 314.78 118.29 315.301C117.941 316.499 117.886 317.457 118.229 318.276C118.57 319.092 119.264 319.666 120.155 320.197C120.649 320.491 121.24 320.563 121.787 320.414Z" fill="#ED9F2E" stroke="#323A45"/>
<path d="M106.069 342.427C108.747 341.389 109.966 338.252 108.886 335.464C107.819 332.713 104.725 330.966 102.077 332.234C100.092 333.184 98.9584 334.174 98.5337 335.395C98.1121 336.608 98.4445 337.903 98.9866 339.301C100.084 342.131 103.432 343.449 106.069 342.427Z" fill="#996D61" stroke="#323A45"/>
</g>
<g filter="url(#filter2_d)">
<path d="M77.1383 78.3756C66.1587 66.7718 60.6689 60.9699 59.1599 56.3444C55.783 45.9929 60.6252 34.7447 70.4652 30.0831C74.8622 28 82.8497 28 98.8247 28H249.564C274.048 28 286.29 28 293.428 31.2609C309.371 38.5452 317.766 56.2398 313.324 73.1961C311.335 80.7869 303.592 90.2691 288.105 109.233L225.377 186.047C219.949 192.694 217.235 196.017 214.257 197.898C207.681 202.05 199.382 202.353 192.52 198.691C189.413 197.033 186.464 193.916 180.566 187.683L77.1383 78.3756Z" fill="#046B99"/>
</g>
<mask id="mask1" mask-type="alpha" maskUnits="userSpaceOnUse" x="58" y="28" width="283" height="181">
<path d="M64.0129 64.5041C50.9628 50.7121 60.7402 28 79.7277 28H319.065C335.237 28 345.692 45.0959 338.324 59.4918L279.968 173.505C277.703 177.929 273.986 181.438 269.439 183.443L217.86 206.189C209.49 209.88 199.703 207.908 193.416 201.263L64.0129 64.5041Z" fill="#C4C4C4"/>
</mask>
<g mask="url(#mask1)">
<path d="M24.9033 118.275H245.64V135.961V177.226H190.456V135.961H135.272H24.9033V118.275Z" fill="#8FC1BF"/>
<path d="M123.568 183.137H1.97827L41.2717 37.0547H168.813C189.305 37.0547 199.856 41.7888 214.261 46.6582C221.899 47.1825 225.144 48.3137 229.951 51.1219C239.758 56.8502 251.187 86.8985 251.187 132.143V161.969L254.867 164.566C256.86 165.973 257.996 168.338 257.696 170.759C257.156 175.129 256.233 177.978 253.216 181.108C250.376 182.799 248.414 183.137 243.951 183.137H180.648C180.648 183.137 185.586 141.071 152.244 141.071C118.902 141.071 123.568 183.137 123.568 183.137Z" fill="#E5E9EC"/>
<path d="M22.9379 158.886H117.259C114.749 167.84 113.804 172.955 113.984 182.466H22.9379V158.886Z" fill="#FAB34D"/>
<path opacity="0.8" d="M49.7937 37.0547H178.502C178.534 47.4886 167.184 50.9647 129.049 53.4298H49.7937V37.0547Z" fill="white"/>
<rect x="35.5799" y="77.7686" width="81.6979" height="55.7277" rx="6.86294" fill="#046B99"/>
<g opacity="0.2">
<circle cx="62.1867" cy="80.9402" r="0.655006" fill="#323A45"/>
<circle cx="62.1867" cy="85.7917" r="0.655006" fill="#323A45"/>
<circle cx="62.1867" cy="90.6433" r="0.655006" fill="#323A45"/>
<circle cx="62.1867" cy="95.4953" r="0.655006" fill="#323A45"/>
<circle cx="62.1867" cy="100.347" r="0.655006" fill="#323A45"/>
<circle cx="62.1867" cy="105.198" r="0.655006" fill="#323A45"/>
<circle cx="62.1867" cy="110.05" r="0.655006" fill="#323A45"/>
<circle cx="62.1867" cy="114.902" r="0.655006" fill="#323A45"/>
<circle cx="62.1867" cy="119.754" r="0.655006" fill="#323A45"/>
<circle cx="62.1867" cy="124.605" r="0.655006" fill="#323A45"/>
<circle cx="62.1867" cy="129.19" r="0.655006" fill="#323A45"/>
<circle cx="67.577" cy="80.9402" r="0.655006" fill="#323A45"/>
<circle cx="67.577" cy="85.7917" r="0.655006" fill="#323A45"/>
<circle cx="67.577" cy="90.6433" r="0.655006" fill="#323A45"/>
<circle cx="67.577" cy="95.4953" r="0.655006" fill="#323A45"/>
<circle cx="67.577" cy="100.347" r="0.655006" fill="#323A45"/>
<circle cx="67.577" cy="105.198" r="0.655006" fill="#323A45"/>
<circle cx="67.577" cy="110.05" r="0.655006" fill="#323A45"/>
<circle cx="67.577" cy="114.902" r="0.655006" fill="#323A45"/>
<circle cx="67.577" cy="119.754" r="0.655006" fill="#323A45"/>
<circle cx="67.577" cy="124.605" r="0.655006" fill="#323A45"/>
<circle cx="67.577" cy="129.19" r="0.655006" fill="#323A45"/>
<circle cx="72.9673" cy="80.9402" r="0.655006" fill="#323A45"/>
<circle cx="72.9673" cy="85.7917" r="0.655006" fill="#323A45"/>
<circle cx="72.9673" cy="90.6433" r="0.655006" fill="#323A45"/>
<circle cx="72.9673" cy="95.4953" r="0.655006" fill="#323A45"/>
<circle cx="72.9673" cy="100.347" r="0.655006" fill="#323A45"/>
<circle cx="72.9673" cy="105.198" r="0.655006" fill="#323A45"/>
<circle cx="72.9673" cy="110.05" r="0.655006" fill="#323A45"/>
<circle cx="72.9673" cy="114.902" r="0.655006" fill="#323A45"/>
<circle cx="72.9673" cy="119.754" r="0.655006" fill="#323A45"/>
<circle cx="72.9673" cy="124.605" r="0.655006" fill="#323A45"/>
<circle cx="72.9673" cy="129.19" r="0.655006" fill="#323A45"/>
<circle cx="78.3577" cy="80.9402" r="0.655006" fill="#323A45"/>
<circle cx="78.3577" cy="85.7917" r="0.655006" fill="#323A45"/>
<circle cx="78.3577" cy="90.6433" r="0.655006" fill="#323A45"/>
<circle cx="78.3577" cy="95.4953" r="0.655006" fill="#323A45"/>
<circle cx="78.3577" cy="100.347" r="0.655006" fill="#323A45"/>
<circle cx="78.3577" cy="105.198" r="0.655006" fill="#323A45"/>
<circle cx="78.3577" cy="110.05" r="0.655006" fill="#323A45"/>
<circle cx="78.3577" cy="114.902" r="0.655006" fill="#323A45"/>
<circle cx="78.3577" cy="119.754" r="0.655006" fill="#323A45"/>
<circle cx="78.3577" cy="124.605" r="0.655006" fill="#323A45"/>
<circle cx="78.3598" cy="129.19" r="0.655006" fill="#323A45"/>
<circle cx="83.7501" cy="80.9402" r="0.655006" fill="#323A45"/>
<circle cx="83.7501" cy="85.7917" r="0.655006" fill="#323A45"/>
<circle cx="83.7501" cy="90.6433" r="0.655006" fill="#323A45"/>
<circle cx="83.7501" cy="95.4953" r="0.655006" fill="#323A45"/>
<circle cx="83.7501" cy="100.347" r="0.655006" fill="#323A45"/>
<circle cx="83.7501" cy="105.198" r="0.655006" fill="#323A45"/>
<circle cx="83.7501" cy="110.05" r="0.655006" fill="#323A45"/>
<circle cx="83.7501" cy="114.902" r="0.655006" fill="#323A45"/>
<circle cx="83.7501" cy="119.754" r="0.655006" fill="#323A45"/>
<circle cx="83.7501" cy="124.605" r="0.655006" fill="#323A45"/>
<circle cx="83.748" cy="129.19" r="0.655006" fill="#323A45"/>
<circle cx="89.1404" cy="80.9402" r="0.655006" fill="#323A45"/>
<circle cx="89.1404" cy="85.7917" r="0.655006" fill="#323A45"/>
<circle cx="89.1404" cy="90.6433" r="0.655006" fill="#323A45"/>
<circle cx="89.1404" cy="95.4953" r="0.655006" fill="#323A45"/>
<circle cx="89.1404" cy="100.347" r="0.655006" fill="#323A45"/>
<circle cx="89.1404" cy="105.198" r="0.655006" fill="#323A45"/>
<circle cx="89.1404" cy="110.05" r="0.655006" fill="#323A45"/>
<circle cx="89.1404" cy="114.902" r="0.655006" fill="#323A45"/>
<circle cx="89.1404" cy="119.754" r="0.655006" fill="#323A45"/>
<circle cx="89.1404" cy="124.605" r="0.655006" fill="#323A45"/>
<circle cx="89.1404" cy="129.19" r="0.655006" fill="#323A45"/>
<circle cx="94.5307" cy="80.9402" r="0.655006" fill="#323A45"/>
<circle cx="94.5307" cy="85.7917" r="0.655006" fill="#323A45"/>
<circle cx="94.5307" cy="90.6433" r="0.655006" fill="#323A45"/>
<circle cx="94.5307" cy="95.4953" r="0.655006" fill="#323A45"/>
<circle cx="94.5307" cy="100.347" r="0.655006" fill="#323A45"/>
<circle cx="94.5307" cy="105.198" r="0.655006" fill="#323A45"/>
<circle cx="94.5307" cy="110.05" r="0.655006" fill="#323A45"/>
<circle cx="94.5307" cy="114.902" r="0.655006" fill="#323A45"/>
<circle cx="94.5307" cy="119.754" r="0.655006" fill="#323A45"/>
<circle cx="94.5307" cy="124.605" r="0.655006" fill="#323A45"/>
<circle cx="94.5307" cy="129.19" r="0.655006" fill="#323A45"/>
<circle cx="99.9211" cy="80.9402" r="0.655006" fill="#323A45"/>
<circle cx="105.817" cy="80.9402" r="0.655006" fill="#323A45"/>
<circle cx="111.712" cy="80.9402" r="0.655006" fill="#323A45"/>
<circle cx="111.712" cy="85.5251" r="0.655006" fill="#323A45"/>
<circle cx="111.712" cy="90.7654" r="0.655006" fill="#323A45"/>
<circle cx="99.9211" cy="85.7917" r="0.655006" fill="#323A45"/>
<circle cx="99.9211" cy="90.6433" r="0.655006" fill="#323A45"/>
<circle cx="99.9211" cy="95.4953" r="0.655006" fill="#323A45"/>
<circle cx="105.817" cy="95.4953" r="0.655006" fill="#323A45"/>
<circle cx="111.712" cy="95.4953" r="0.655006" fill="#323A45"/>
<circle cx="99.9211" cy="100.347" r="0.655006" fill="#323A45"/>
<circle cx="105.817" cy="100.347" r="0.655006" fill="#323A45"/>
<circle cx="111.712" cy="100.347" r="0.655006" fill="#323A45"/>
<circle cx="99.9211" cy="105.198" r="0.655006" fill="#323A45"/>
<circle cx="105.817" cy="105.198" r="0.655006" fill="#323A45"/>
<circle cx="111.712" cy="105.198" r="0.655006" fill="#323A45"/>
<circle cx="99.9211" cy="110.05" r="0.655006" fill="#323A45"/>
<circle cx="105.817" cy="110.05" r="0.655006" fill="#323A45"/>
<circle cx="111.712" cy="110.05" r="0.655006" fill="#323A45"/>
<circle cx="99.9211" cy="114.902" r="0.655006" fill="#323A45"/>
<circle cx="105.817" cy="114.902" r="0.655006" fill="#323A45"/>
<circle cx="111.712" cy="114.902" r="0.655006" fill="#323A45"/>
<circle cx="99.9211" cy="119.754" r="0.655006" fill="#323A45"/>
<circle cx="105.817" cy="119.754" r="0.655006" fill="#323A45"/>
<circle cx="111.712" cy="119.754" r="0.655006" fill="#323A45"/>
<circle cx="99.9211" cy="124.605" r="0.655006" fill="#323A45"/>
<circle cx="99.9211" cy="129.19" r="0.655006" fill="#323A45"/>
<circle cx="105.817" cy="124.605" r="0.655006" fill="#323A45"/>
<circle cx="105.817" cy="129.19" r="0.655006" fill="#323A45"/>
<circle cx="111.712" cy="124.605" r="0.655006" fill="#323A45"/>
<circle cx="111.712" cy="129.19" r="0.655006" fill="#323A45"/>
</g>
<rect x="123.23" y="77.7686" width="55.7277" height="55.7277" rx="6.86294" fill="#046B99"/>
<mask id="mask2" mask-type="alpha" maskUnits="userSpaceOnUse" x="123" y="77" width="56" height="57">
<rect x="123.23" y="77.7686" width="55.7277" height="55.7277" rx="6.86294" fill="#DCF4F3"/>
</mask>
<g mask="url(#mask2)">
<g opacity="0.2">
<circle cx="127.739" cy="80.9402" r="0.655006" fill="#323A45"/>
<circle cx="127.739" cy="85.7917" r="0.655006" fill="#323A45"/>
<circle cx="127.739" cy="90.6433" r="0.655006" fill="#323A45"/>
<circle cx="127.739" cy="95.4953" r="0.655006" fill="#323A45"/>
<circle cx="127.739" cy="100.347" r="0.655006" fill="#323A45"/>
<circle cx="127.739" cy="105.198" r="0.655006" fill="#323A45"/>
<circle cx="127.739" cy="110.05" r="0.655006" fill="#323A45"/>
<circle cx="127.739" cy="114.902" r="0.655006" fill="#323A45"/>
<circle cx="127.739" cy="119.754" r="0.655006" fill="#323A45"/>
<circle cx="127.739" cy="124.605" r="0.655006" fill="#323A45"/>
<circle cx="127.739" cy="129.19" r="0.655006" fill="#323A45"/>
<circle cx="133.129" cy="80.9402" r="0.655006" fill="#323A45"/>
<circle cx="133.129" cy="85.7917" r="0.655006" fill="#323A45"/>
<circle cx="133.129" cy="90.6433" r="0.655006" fill="#323A45"/>
<circle cx="133.129" cy="95.4953" r="0.655006" fill="#323A45"/>
<circle cx="133.129" cy="100.347" r="0.655006" fill="#323A45"/>
<circle cx="133.129" cy="105.198" r="0.655006" fill="#323A45"/>
<circle cx="133.129" cy="110.05" r="0.655006" fill="#323A45"/>
<circle cx="133.129" cy="114.902" r="0.655006" fill="#323A45"/>
<circle cx="133.129" cy="119.754" r="0.655006" fill="#323A45"/>
<circle cx="133.129" cy="124.605" r="0.655006" fill="#323A45"/>
<circle cx="133.129" cy="129.19" r="0.655006" fill="#323A45"/>
<circle cx="138.52" cy="80.9402" r="0.655006" fill="#323A45"/>
<circle cx="138.52" cy="85.7917" r="0.655006" fill="#323A45"/>
<circle cx="138.52" cy="90.6433" r="0.655006" fill="#323A45"/>
<circle cx="138.52" cy="95.4953" r="0.655006" fill="#323A45"/>
<circle cx="138.52" cy="100.347" r="0.655006" fill="#323A45"/>
<circle cx="138.52" cy="105.198" r="0.655006" fill="#323A45"/>
<circle cx="138.52" cy="110.05" r="0.655006" fill="#323A45"/>
<circle cx="138.52" cy="114.902" r="0.655006" fill="#323A45"/>
<circle cx="138.52" cy="119.754" r="0.655006" fill="#323A45"/>
<circle cx="138.52" cy="124.605" r="0.655006" fill="#323A45"/>
<circle cx="138.522" cy="129.19" r="0.655006" fill="#323A45"/>
<circle cx="143.912" cy="80.9402" r="0.655006" fill="#323A45"/>
<circle cx="143.912" cy="85.7917" r="0.655006" fill="#323A45"/>
<circle cx="143.912" cy="90.6433" r="0.655006" fill="#323A45"/>
<circle cx="143.912" cy="95.4953" r="0.655006" fill="#323A45"/>
<circle cx="143.912" cy="100.347" r="0.655006" fill="#323A45"/>
<circle cx="143.912" cy="105.198" r="0.655006" fill="#323A45"/>
<circle cx="143.912" cy="110.05" r="0.655006" fill="#323A45"/>
<circle cx="143.912" cy="114.902" r="0.655006" fill="#323A45"/>
<circle cx="143.912" cy="119.754" r="0.655006" fill="#323A45"/>
<circle cx="143.912" cy="124.605" r="0.655006" fill="#323A45"/>
<circle cx="143.91" cy="129.19" r="0.655006" fill="#323A45"/>
<circle cx="149.302" cy="80.9402" r="0.655006" fill="#323A45"/>
<circle cx="149.302" cy="85.7917" r="0.655006" fill="#323A45"/>
<circle cx="149.302" cy="90.6433" r="0.655006" fill="#323A45"/>
<circle cx="149.302" cy="95.4953" r="0.655006" fill="#323A45"/>
<circle cx="149.302" cy="100.347" r="0.655006" fill="#323A45"/>
<circle cx="149.302" cy="105.198" r="0.655006" fill="#323A45"/>
<circle cx="149.302" cy="110.05" r="0.655006" fill="#323A45"/>
<circle cx="149.302" cy="114.902" r="0.655006" fill="#323A45"/>
<circle cx="149.302" cy="119.754" r="0.655006" fill="#323A45"/>
<circle cx="149.302" cy="124.605" r="0.655006" fill="#323A45"/>
<circle cx="149.302" cy="129.19" r="0.655006" fill="#323A45"/>
<circle cx="154.693" cy="80.9402" r="0.655006" fill="#323A45"/>
<circle cx="154.693" cy="85.7917" r="0.655006" fill="#323A45"/>
<circle cx="154.693" cy="90.6433" r="0.655006" fill="#323A45"/>
<circle cx="154.693" cy="95.4953" r="0.655006" fill="#323A45"/>
<circle cx="154.693" cy="100.347" r="0.655006" fill="#323A45"/>
<circle cx="154.693" cy="105.198" r="0.655006" fill="#323A45"/>
<circle cx="154.693" cy="110.05" r="0.655006" fill="#323A45"/>
<circle cx="154.693" cy="114.902" r="0.655006" fill="#323A45"/>
<circle cx="154.693" cy="119.754" r="0.655006" fill="#323A45"/>
<circle cx="154.693" cy="124.605" r="0.655006" fill="#323A45"/>
<circle cx="154.693" cy="129.19" r="0.655006" fill="#323A45"/>
<circle cx="160.083" cy="80.9402" r="0.655006" fill="#323A45"/>
<circle cx="160.083" cy="85.7917" r="0.655006" fill="#323A45"/>
<circle cx="160.083" cy="90.6433" r="0.655006" fill="#323A45"/>
<circle cx="160.083" cy="95.4953" r="0.655006" fill="#323A45"/>
<circle cx="160.083" cy="100.347" r="0.655006" fill="#323A45"/>
<circle cx="160.083" cy="105.198" r="0.655006" fill="#323A45"/>
<circle cx="160.083" cy="110.05" r="0.655006" fill="#323A45"/>
<circle cx="160.083" cy="114.902" r="0.655006" fill="#323A45"/>
<circle cx="160.083" cy="119.754" r="0.655006" fill="#323A45"/>
<circle cx="160.083" cy="124.605" r="0.655006" fill="#323A45"/>
<circle cx="160.083" cy="129.19" r="0.655006" fill="#323A45"/>
<circle cx="165.473" cy="80.9402" r="0.655006" fill="#323A45"/>
<circle cx="165.473" cy="85.7917" r="0.655006" fill="#323A45"/>
<circle cx="165.473" cy="90.6433" r="0.655006" fill="#323A45"/>
<circle cx="165.473" cy="95.4953" r="0.655006" fill="#323A45"/>
<circle cx="165.473" cy="100.347" r="0.655006" fill="#323A45"/>
<circle cx="165.473" cy="105.198" r="0.655006" fill="#323A45"/>
<circle cx="165.473" cy="110.05" r="0.655006" fill="#323A45"/>
<circle cx="165.473" cy="114.902" r="0.655006" fill="#323A45"/>
<circle cx="165.473" cy="119.754" r="0.655006" fill="#323A45"/>
<circle cx="165.473" cy="124.605" r="0.655006" fill="#323A45"/>
<circle cx="165.475" cy="129.19" r="0.655006" fill="#323A45"/>
<circle cx="170.866" cy="80.9402" r="0.655006" fill="#323A45"/>
<circle cx="170.866" cy="85.7917" r="0.655006" fill="#323A45"/>
<circle cx="170.866" cy="90.6433" r="0.655006" fill="#323A45"/>
<circle cx="170.866" cy="95.4953" r="0.655006" fill="#323A45"/>
<circle cx="170.866" cy="100.347" r="0.655006" fill="#323A45"/>
<circle cx="170.866" cy="105.198" r="0.655006" fill="#323A45"/>
<circle cx="170.866" cy="110.05" r="0.655006" fill="#323A45"/>
<circle cx="170.866" cy="114.902" r="0.655006" fill="#323A45"/>
<circle cx="170.866" cy="119.754" r="0.655006" fill="#323A45"/>
<circle cx="170.866" cy="124.605" r="0.655006" fill="#323A45"/>
<circle cx="170.864" cy="129.19" r="0.655006" fill="#323A45"/>
<circle cx="176.256" cy="80.9402" r="0.655006" fill="#323A45"/>
<circle cx="176.256" cy="85.7917" r="0.655006" fill="#323A45"/>
<circle cx="176.256" cy="90.6433" r="0.655006" fill="#323A45"/>
<circle cx="176.256" cy="95.4953" r="0.655006" fill="#323A45"/>
<circle cx="176.256" cy="100.347" r="0.655006" fill="#323A45"/>
<circle cx="176.256" cy="105.198" r="0.655006" fill="#323A45"/>
<circle cx="176.256" cy="110.05" r="0.655006" fill="#323A45"/>
<circle cx="176.256" cy="114.902" r="0.655006" fill="#323A45"/>
<circle cx="176.256" cy="119.754" r="0.655006" fill="#323A45"/>
<circle cx="176.256" cy="124.605" r="0.655006" fill="#323A45"/>
<circle cx="176.256" cy="129.19" r="0.655006" fill="#323A45"/>
</g>
</g>
<path d="M8.52823 183.137H123.568C123.568 183.137 118.902 141.071 152.243 141.071C185.585 141.071 180.648 183.137 180.648 183.137H243.951C248.414 183.137 250.376 182.799 253.216 181.108C256.233 177.978 257.155 175.129 257.696 170.759C257.996 168.338 256.86 165.973 254.867 164.566L251.187 161.969V132.143C251.187 86.8985 239.758 56.8502 229.951 51.1219C225.144 48.3137 221.899 47.1825 214.261 46.6582C199.855 41.7888 189.305 37.0547 168.813 37.0547H37.5857" stroke="#323A45"/>
<path d="M245.776 183.137V164.876C245.776 163.69 246.682 162.701 247.864 162.597L251.186 162.307" stroke="#323A45"/>
<path d="M245.777 183.112C249.014 183.008 250.796 182.549 253.217 181.108C256.067 178.152 257.048 175.446 257.603 171.472C258.003 168.615 256.638 165.815 254.281 164.152L251.188 161.969L248.247 162.564C246.849 162.687 245.777 163.857 245.777 165.259V183.112Z" fill="#404853"/>
<path d="M245.777 183.112C249.014 183.008 250.796 182.549 253.217 181.108C256.067 178.152 257.048 175.446 257.603 171.472C258.003 168.615 256.638 165.815 254.281 164.152L251.188 161.969L248.247 162.564C246.849 162.687 245.777 163.857 245.777 165.259V183.112ZM245.777 183.112V183.137L243.952 183.137C244.611 183.137 245.216 183.13 245.777 183.112Z" stroke="#323A45"/>
<path d="M247.135 144.598C248.344 143.325 249.611 143.632 251.178 145.047V157.327C248.015 154.856 244.901 147.967 247.135 144.598Z" fill="white" stroke="#323A45"/>
<rect x="123.73" y="78.2686" width="54.7277" height="54.7277" rx="6.36294" stroke="#323A45"/>
<rect x="36.0819" y="78.2686" width="80.6979" height="54.7277" rx="6.36294" stroke="#323A45"/>
<line opacity="0.5" x1="35.5819" y1="96.8154" x2="117.28" y2="96.8154" stroke="#323A45"/>
<path opacity="0.5" d="M123.255 97.3154L178.51 97.3154" stroke="#323A45"/>
<circle cx="151.702" cy="169.408" r="22.1563" fill="#323A45" stroke="#323A45"/>
<circle cx="151.701" cy="169.408" r="15.6227" fill="#747C87"/>
<circle cx="151.772" cy="156.356" r="1.48788" fill="#323A45"/>
<circle cx="138.922" cy="169.476" r="1.48788" fill="#323A45"/>
<circle cx="140.546" cy="162.983" r="1.48788" fill="#323A45"/>
<circle cx="145.28" cy="158.114" r="1.48788" fill="#323A45"/>
<circle r="1.48788" transform="matrix(-1 0 0 1 164.622 169.476)" fill="#323A45"/>
<circle r="1.48788" transform="matrix(-1 0 0 1 162.998 162.983)" fill="#323A45"/>
<circle r="1.48788" transform="matrix(-1 0 0 1 158.263 158.114)" fill="#323A45"/>
<circle r="1.48788" transform="matrix(1 0 0 -1 151.771 182.596)" fill="#323A45"/>
<circle r="1.48788" transform="matrix(1 0 0 -1 140.545 175.969)" fill="#323A45"/>
<circle r="1.48788" transform="matrix(1 0 0 -1 145.279 180.838)" fill="#323A45"/>
<circle cx="162.999" cy="175.969" r="1.48788" transform="rotate(-180 162.999 175.969)" fill="#323A45"/>
<circle cx="158.264" cy="180.838" r="1.48788" transform="rotate(-180 158.264 180.838)" fill="#323A45"/>
<circle cx="151.646" cy="169.694" r="9.65259" fill="#404853" stroke="#323A45"/>
<path d="M236 178.268H192.657C189.499 178.268 186.938 175.707 186.938 172.548V82.6083C186.938 79.4497 189.499 76.8892 192.657 76.8892H230.374C232.989 76.8892 235.277 78.6626 235.904 81.2021C239.326 95.073 241.719 107.755 241.719 130.453V172.548C241.719 175.707 239.158 178.268 236 178.268Z" stroke="#323A45"/>
<path d="M192.308 90.7385C192.308 89.1236 192.309 87.9565 192.415 87.0571C192.521 86.1689 192.724 85.6074 193.083 85.1737C193.218 85.0101 193.369 84.8596 193.532 84.7243C193.966 84.3655 194.527 84.1625 195.416 84.0569C196.315 83.95 197.482 83.9492 199.097 83.9492H201.967C203.582 83.9492 204.749 83.95 205.649 84.0569C206.537 84.1625 207.098 84.3655 207.532 84.7243C207.696 84.8596 207.846 85.0101 207.981 85.1737C208.34 85.6074 208.543 86.1689 208.649 87.0571C208.756 87.9565 208.756 89.1236 208.756 90.7385V164.486C208.756 166.101 208.756 167.268 208.649 168.167C208.543 169.055 208.34 169.617 207.981 170.05C207.846 170.214 207.696 170.365 207.532 170.5C207.098 170.859 206.537 171.062 205.649 171.167C204.749 171.274 203.582 171.275 201.967 171.275H199.097C197.482 171.275 196.315 171.274 195.416 171.167C194.527 171.062 193.966 170.859 193.532 170.5C193.369 170.365 193.218 170.214 193.083 170.05C192.724 169.617 192.521 169.055 192.415 168.167C192.309 167.268 192.308 166.101 192.308 164.486V90.7385Z" fill="#046B99" stroke="#323A45"/>
<path d="M219.495 90.7385C219.495 89.1236 219.495 87.9565 219.602 87.0571C219.708 86.1689 219.911 85.6074 220.27 85.1737C220.405 85.0101 220.556 84.8596 220.719 84.7243C221.153 84.3655 221.714 84.1625 222.603 84.0569C223.502 83.95 224.669 83.9492 226.284 83.9492H227.149C229.22 83.9492 230.067 83.9646 230.838 84.4222C230.961 84.4951 231.132 84.614 231.243 84.704C231.942 85.2717 232.202 85.9379 232.814 87.5961C235.828 95.7656 236.349 106.522 236.349 119.429V164.486C236.349 166.101 236.348 167.268 236.241 168.167C236.136 169.055 235.933 169.617 235.574 170.05C235.439 170.214 235.288 170.365 235.125 170.5C234.691 170.859 234.129 171.062 233.241 171.167C232.342 171.274 231.175 171.275 229.56 171.275H226.284C224.669 171.275 223.502 171.274 222.603 171.167C221.714 171.062 221.153 170.859 220.719 170.5C220.556 170.365 220.405 170.214 220.27 170.05C219.911 169.617 219.708 169.055 219.602 168.167C219.495 167.268 219.495 166.101 219.495 164.486V90.7385Z" fill="#046B99" stroke="#323A45"/>
<path d="M43.3582 53.5568H121.404C137.5 53.5568 153.934 51.9336 175.509 47.6053C190.324 44.6329 214.193 46.7937 214.193 46.7937" stroke="#323A45"/>
<path d="M219.712 56.938H81.7784C82.3163 65.121 80.7998 68.4591 77.2471 73.8457H231.621C232.832 73.8457 233.66 72.6193 233.208 71.4967C229.889 63.2696 228.574 61.433 223.374 58.0142C222.29 57.3011 221.01 56.938 219.712 56.938Z" fill="#FAB34D"/>
<path d="M42.4784 56.938H219.713C221.011 56.938 222.291 57.299 223.369 58.0214C228.678 61.5782 230.682 64.2195 233.35 71.5796C233.75 72.6849 232.923 73.8457 231.747 73.8457H37.9471" stroke="#323A45"/>
<path opacity="0.5" d="M123.23 158.655L15.4271 158.655" stroke="#323A45"/>
<path d="M236.402 58.2231C235.049 61.6047 235.496 63.1294 236.402 67.0151C242.735 89.8051 244.937 102.4 248.169 124.772C248.575 126.53 249.86 127.95 251.213 128.627" stroke="#323A45"/>
<path d="M236.43 58.1914C235.112 61.4876 235.477 63.0498 236.335 66.7255L236.402 67.0153C242.736 89.8052 244.938 102.401 248.17 124.772C248.571 126.509 249.83 127.916 251.164 128.602C250.716 94.9745 243.919 70.1866 236.43 58.1914Z" fill="#404853"/>
<path d="M236.402 67.0153C242.736 89.8052 244.938 102.401 248.17 124.772C248.571 126.509 249.83 127.916 251.164 128.602M236.402 67.0153L236.335 66.7255M236.402 67.0153C236.38 66.9172 236.357 66.8207 236.335 66.7255M251.164 128.602C250.716 94.9745 243.919 70.1866 236.43 58.1914C235.112 61.4876 235.477 63.0498 236.335 66.7255M251.164 128.602C251.181 128.61 251.148 128.594 251.164 128.602Z" stroke="#323A45"/>
<line x1="214.625" y1="76.8218" x2="214.625" y2="178.335" stroke="#323A45"/>
</g>
<g filter="url(#filter3_d)">
<path d="M320.359 138.782C339.078 117.397 348.437 106.705 356.234 104.544C367.554 101.406 379.605 105.935 386.056 115.752C390.5 122.514 390.5 136.724 390.5 165.143V328.38C390.5 348.657 390.5 358.795 387.202 364.062C382.416 371.706 373.39 375.579 364.552 373.781C358.463 372.543 351.115 365.557 336.419 351.586L248.258 267.772C241.502 261.349 238.124 258.138 236.4 254.51C233.905 249.26 233.629 243.226 235.632 237.769C237.016 233.999 240.086 230.492 246.226 223.477L267.115 199.612L320.359 138.782Z" fill="#5B559C"/>
</g>
<mask id="mask3" mask-type="alpha" maskUnits="userSpaceOnUse" x="216" y="70" width="214" height="305">
<path d="M365.196 73.0634C377.8 65.8836 393.76 72.8972 396.994 87.0373L429.15 227.599C430.033 231.459 429.84 235.487 428.591 239.245L406.456 305.861C405.022 310.177 404.984 314.835 406.349 319.174L409.036 327.715C411.817 336.56 407.181 346.034 398.489 349.264C393.807 351.003 390.097 354.67 388.303 359.332L387.741 360.794C382.391 374.694 364.626 378.687 353.842 368.413L238.323 258.353C231.427 251.783 230.936 240.945 237.209 233.778C242.674 227.535 243.092 218.342 238.218 211.629L230.5 201L219.391 180.483C213.789 170.136 217.483 157.208 227.708 151.384L365.196 73.0634Z" fill="#8A75BB"/>
</mask>
<g mask="url(#mask3)">
<rect x="287" y="174" width="12" height="23" fill="#323A45"/>
<rect width="12" height="23" transform="matrix(-1 0 0 1 400.7 174)" fill="#323A45"/>
<path d="M373.889 382H374.389V381.5V350.5C374.389 348.567 375.956 347 377.889 347H395.779C398.264 347 400.279 344.985 400.279 342.5V182.329C400.279 179.844 398.264 177.829 395.779 177.829H292C289.515 177.829 287.5 179.844 287.5 182.329V342.5C287.5 344.985 289.515 347 292 347H311.945C313.878 347 315.445 348.567 315.445 350.5V381.5V382H315.945H373.889Z" fill="#323A45" stroke="#323A45"/>
<rect x="298.416" y="188.745" width="90.9471" height="150.442" rx="4.5" fill="#5B559C" stroke="#323A45"/>
<path d="M315.304 263.661C315.304 247.824 328.142 234.985 343.979 234.985C359.816 234.985 372.655 247.824 372.655 263.661C372.655 279.498 359.816 292.336 343.979 292.336C328.142 292.336 315.304 279.498 315.304 263.661ZM343.979 230.563C325.7 230.563 310.882 245.382 310.882 263.661C310.882 281.94 325.7 296.758 343.979 296.758C362.258 296.758 377.077 281.94 377.077 263.661C377.077 245.382 362.258 230.563 343.979 230.563Z" fill="white" stroke="#323A45"/>
<path d="M353.615 263.215C353.074 262.762 352.484 262.401 351.847 262.131C352.379 261.891 352.879 261.587 353.347 261.216L353.347 261.216L353.355 261.209C354.265 260.456 354.985 259.531 355.515 258.439C356.049 257.342 356.316 256.179 356.316 254.956C356.316 253.293 355.827 251.829 354.841 250.588C353.865 249.329 352.507 248.369 350.793 247.696C349.104 247.021 347.142 246.69 344.917 246.69C343.293 246.69 341.712 246.871 340.174 247.232C338.642 247.563 337.251 248.03 336.006 248.638L336.006 248.638L336.001 248.64C334.781 249.25 333.784 249.977 333.027 250.829C332.862 251.015 332.859 251.295 333.02 251.485L338.315 257.707C338.417 257.826 338.568 257.891 338.724 257.882C338.881 257.873 339.024 257.791 339.111 257.661C340.419 255.713 342.026 254.794 343.947 254.794C344.789 254.794 345.366 254.985 345.747 255.298C345.751 255.302 345.756 255.305 345.761 255.309C346.121 255.584 346.315 255.972 346.315 256.544C346.315 257.265 345.993 257.853 345.261 258.332C344.515 258.821 343.488 259.089 342.137 259.089H340.593C340.317 259.089 340.093 259.313 340.093 259.589V265.413C340.093 265.689 340.317 265.913 340.593 265.913H341.961C343.944 265.913 345.274 266.165 346.039 266.598L346.038 266.598L346.05 266.604C346.415 266.799 346.672 267.05 346.841 267.355C347.012 267.662 347.109 268.053 347.109 268.546C347.109 269.412 346.814 269.974 346.275 270.335C345.723 270.693 344.757 270.914 343.285 270.914C341.029 270.914 339.141 270.296 337.593 269.079C337.485 268.994 337.347 268.958 337.211 268.978C337.075 268.998 336.954 269.073 336.875 269.185L332.595 275.274C332.447 275.484 332.483 275.773 332.678 275.94C335.523 278.388 339.222 279.591 343.726 279.591C347.672 279.591 350.846 278.77 353.195 277.07C355.59 275.36 356.801 273.017 356.801 270.09C356.801 268.67 356.523 267.361 355.959 266.17C355.398 264.987 354.617 264 353.615 263.215Z" fill="white" stroke="#323A45" stroke-linecap="round" stroke-linejoin="round"/>
<path d="M319.654 316.492V310.326L317.246 314.917H316.227L313.819 310.326V316.492H311.993V307.098H313.951L316.73 312.443L319.535 307.098H321.479V316.492H319.654ZM324.102 316.492V307.098H325.928V316.492H324.102ZM330.376 310.458V316.492H328.55V307.098H330.005L334.861 313.29V307.111H336.687V316.492H335.165L330.376 310.458ZM343.285 316.558C342.535 316.558 341.896 316.434 341.366 316.187C340.846 315.932 340.423 315.583 340.096 315.142C339.779 314.701 339.545 314.203 339.395 313.647C339.245 313.083 339.17 312.496 339.17 311.887V307.098H340.996V311.887C340.996 312.408 341.067 312.902 341.208 313.369C341.349 313.837 341.587 314.216 341.922 314.507C342.257 314.798 342.707 314.944 343.272 314.944C343.854 314.944 344.313 314.798 344.648 314.507C344.983 314.207 345.221 313.823 345.362 313.356C345.503 312.888 345.574 312.399 345.574 311.887V307.098H347.387V311.887C347.387 312.531 347.307 313.135 347.148 313.7C346.998 314.264 346.756 314.763 346.421 315.195C346.094 315.618 345.671 315.954 345.151 316.201C344.63 316.439 344.008 316.558 343.285 316.558ZM356.913 308.699H353.909V316.492H352.097V308.699H349.093V307.098H356.913V308.699ZM365.263 314.891V316.492H358.741V307.098H365.144V308.699H360.566V310.961H364.523V312.443H360.566V314.891H365.263ZM372.945 309.559C372.866 309.47 372.698 309.356 372.442 309.215C372.187 309.065 371.878 308.932 371.516 308.818C371.163 308.694 370.797 308.633 370.418 308.633C369.421 308.633 368.923 308.985 368.923 309.691C368.923 309.947 369.002 310.15 369.161 310.3C369.32 310.45 369.558 310.577 369.876 310.683C370.193 310.789 370.59 310.904 371.066 311.027C371.684 311.186 372.217 311.371 372.667 311.583C373.126 311.795 373.474 312.077 373.713 312.43C373.96 312.774 374.083 313.232 374.083 313.806C374.083 314.476 373.92 315.019 373.593 315.433C373.276 315.839 372.853 316.134 372.323 316.32C371.794 316.505 371.221 316.598 370.603 316.598C369.898 316.598 369.196 316.492 368.5 316.28C367.812 316.059 367.199 315.76 366.66 315.38L367.468 313.806C367.547 313.885 367.688 313.991 367.891 314.123C368.094 314.247 368.341 314.375 368.632 314.507C368.923 314.631 369.24 314.736 369.584 314.825C369.928 314.913 370.277 314.957 370.63 314.957C371.635 314.957 372.138 314.635 372.138 313.991C372.138 313.718 372.037 313.497 371.834 313.329C371.631 313.162 371.344 313.021 370.974 312.906C370.612 312.791 370.189 312.664 369.704 312.522C369.104 312.355 368.605 312.17 368.208 311.967C367.82 311.755 367.529 311.495 367.335 311.186C367.141 310.869 367.044 310.467 367.044 309.982C367.044 309.338 367.194 308.8 367.494 308.368C367.803 307.927 368.217 307.596 368.738 307.376C369.258 307.146 369.836 307.032 370.471 307.032C371.124 307.032 371.732 307.137 372.297 307.349C372.861 307.561 373.346 307.803 373.752 308.077L372.945 309.559Z" fill="white"/>
<path d="M319.654 316.492H318.654C318.654 317.044 319.101 317.492 319.654 317.492V316.492ZM319.654 310.326H320.654C320.654 309.866 320.34 309.465 319.893 309.355C319.446 309.245 318.982 309.454 318.768 309.862L319.654 310.326ZM317.246 314.917V315.917C317.617 315.917 317.958 315.711 318.131 315.382L317.246 314.917ZM316.227 314.917L315.341 315.382C315.514 315.711 315.855 315.917 316.227 315.917V314.917ZM313.819 310.326L314.704 309.862C314.491 309.454 314.026 309.245 313.58 309.355C313.133 309.465 312.819 309.866 312.819 310.326H313.819ZM313.819 316.492V317.492C314.371 317.492 314.819 317.044 314.819 316.492H313.819ZM311.993 316.492H310.993C310.993 317.044 311.441 317.492 311.993 317.492V316.492ZM311.993 307.098V306.098C311.441 306.098 310.993 306.545 310.993 307.098H311.993ZM313.951 307.098L314.838 306.636C314.666 306.305 314.324 306.098 313.951 306.098V307.098ZM316.73 312.443L315.842 312.904C316.014 313.235 316.355 313.442 316.728 313.443C317.1 313.444 317.442 313.237 317.615 312.908L316.73 312.443ZM319.535 307.098V306.098C319.163 306.098 318.822 306.304 318.649 306.633L319.535 307.098ZM321.479 307.098H322.479C322.479 306.545 322.032 306.098 321.479 306.098V307.098ZM321.479 316.492V317.492C322.032 317.492 322.479 317.044 322.479 316.492H321.479ZM320.654 316.492V310.326H318.654V316.492H320.654ZM318.768 309.862L316.36 314.453L318.131 315.382L320.539 310.791L318.768 309.862ZM317.246 313.917H316.227V315.917H317.246V313.917ZM317.112 314.453L314.704 309.862L312.933 310.791L315.341 315.382L317.112 314.453ZM312.819 310.326V316.492H314.819V310.326H312.819ZM313.819 315.492H311.993V317.492H313.819V315.492ZM312.993 316.492V307.098H310.993V316.492H312.993ZM311.993 308.098H313.951V306.098H311.993V308.098ZM313.064 307.559L315.842 312.904L317.617 311.982L314.838 306.636L313.064 307.559ZM317.615 312.908L320.42 307.562L318.649 306.633L315.844 311.978L317.615 312.908ZM319.535 308.098H321.479V306.098H319.535V308.098ZM320.479 307.098V316.492H322.479V307.098H320.479ZM321.479 315.492H319.654V317.492H321.479V315.492ZM324.102 316.492H323.102C323.102 317.044 323.55 317.492 324.102 317.492V316.492ZM324.102 307.098V306.098C323.55 306.098 323.102 306.545 323.102 307.098H324.102ZM325.928 307.098H326.928C326.928 306.545 326.48 306.098 325.928 306.098V307.098ZM325.928 316.492V317.492C326.48 317.492 326.928 317.044 326.928 316.492H325.928ZM325.102 316.492V307.098H323.102V316.492H325.102ZM324.102 308.098H325.928V306.098H324.102V308.098ZM324.928 307.098V316.492H326.928V307.098H324.928ZM325.928 315.492H324.102V317.492H325.928V315.492ZM330.376 310.458L331.159 309.837C330.894 309.503 330.448 309.374 330.046 309.514C329.645 309.654 329.376 310.033 329.376 310.458H330.376ZM330.376 316.492V317.492C330.928 317.492 331.376 317.044 331.376 316.492H330.376ZM328.55 316.492H327.55C327.55 317.044 327.997 317.492 328.55 317.492V316.492ZM328.55 307.098V306.098C327.997 306.098 327.55 306.545 327.55 307.098H328.55ZM330.005 307.098L330.792 306.481C330.602 306.239 330.312 306.098 330.005 306.098V307.098ZM334.861 313.29L334.074 313.907C334.337 314.242 334.784 314.374 335.187 314.235C335.59 314.096 335.861 313.716 335.861 313.29H334.861ZM334.861 307.111V306.111C334.309 306.111 333.861 306.559 333.861 307.111H334.861ZM336.687 307.111H337.687C337.687 306.559 337.239 306.111 336.687 306.111V307.111ZM336.687 316.492V317.492C337.239 317.492 337.687 317.044 337.687 316.492H336.687ZM335.165 316.492L334.382 317.113C334.572 317.352 334.86 317.492 335.165 317.492V316.492ZM329.376 310.458V316.492H331.376V310.458H329.376ZM330.376 315.492H328.55V317.492H330.376V315.492ZM329.55 316.492V307.098H327.55V316.492H329.55ZM328.55 308.098H330.005V306.098H328.55V308.098ZM329.218 307.715L334.074 313.907L335.648 312.673L330.792 306.481L329.218 307.715ZM335.861 313.29V307.111H333.861V313.29H335.861ZM334.861 308.111H336.687V306.111H334.861V308.111ZM335.687 307.111V316.492H337.687V307.111H335.687ZM336.687 315.492H335.165V317.492H336.687V315.492ZM335.948 315.87L331.159 309.837L329.592 311.08L334.382 317.113L335.948 315.87ZM341.366 316.187L340.925 317.085C340.931 317.088 340.937 317.091 340.944 317.094L341.366 316.187ZM340.096 315.142L339.285 315.726L339.292 315.737L340.096 315.142ZM339.395 313.647L338.429 313.904L338.43 313.908L339.395 313.647ZM339.17 307.098V306.098C338.618 306.098 338.17 306.545 338.17 307.098H339.17ZM340.996 307.098H341.996C341.996 306.545 341.548 306.098 340.996 306.098V307.098ZM341.208 313.369L342.165 313.08L341.208 313.369ZM341.922 314.507L342.578 313.752L341.922 314.507ZM344.648 314.507L345.303 315.262C345.307 315.259 345.311 315.256 345.315 315.252L344.648 314.507ZM345.362 313.356L344.405 313.067V313.067L345.362 313.356ZM345.574 307.098V306.098C345.022 306.098 344.574 306.545 344.574 307.098H345.574ZM347.387 307.098H348.387C348.387 306.545 347.939 306.098 347.387 306.098V307.098ZM347.148 313.7L346.186 313.429C346.184 313.434 346.183 313.439 346.182 313.443L347.148 313.7ZM346.421 315.195L345.63 314.582L345.629 314.585L346.421 315.195ZM345.151 316.201L345.567 317.11L345.579 317.104L345.151 316.201ZM343.285 315.558C342.641 315.558 342.154 315.451 341.789 315.281L340.944 317.094C341.637 317.417 342.429 317.558 343.285 317.558V315.558ZM341.808 315.29C341.422 315.1 341.126 314.853 340.9 314.547L339.292 315.737C339.719 316.314 340.27 316.763 340.925 317.085L341.808 315.29ZM340.908 314.558C340.665 314.22 340.481 313.833 340.361 313.387L338.43 313.908C338.609 314.573 338.893 315.182 339.285 315.726L340.908 314.558ZM340.362 313.39C340.235 312.913 340.17 312.413 340.17 311.887H338.17C338.17 312.579 338.255 313.252 338.429 313.904L340.362 313.39ZM340.17 311.887V307.098H338.17V311.887H340.17ZM339.17 308.098H340.996V306.098H339.17V308.098ZM339.996 307.098V311.887H341.996V307.098H339.996ZM339.996 311.887C339.996 312.499 340.079 313.091 340.25 313.658L342.165 313.08C342.054 312.712 341.996 312.316 341.996 311.887H339.996ZM340.25 313.658C340.44 314.288 340.775 314.835 341.266 315.262L342.578 313.752C342.399 313.597 342.257 313.386 342.165 313.08L340.25 313.658ZM341.266 315.262C341.829 315.75 342.534 315.944 343.272 315.944V313.944C342.881 313.944 342.686 313.846 342.578 313.752L341.266 315.262ZM343.272 315.944C344.018 315.944 344.736 315.755 345.303 315.262L343.992 313.752C343.889 313.841 343.689 313.944 343.272 313.944V315.944ZM345.315 315.252C345.798 314.819 346.13 314.273 346.32 313.645L344.405 313.067C344.312 313.374 344.168 313.595 343.981 313.762L345.315 315.252ZM346.32 313.645C346.49 313.079 346.574 312.492 346.574 311.887H344.574C344.574 312.306 344.516 312.698 344.405 313.067L346.32 313.645ZM346.574 311.887V307.098H344.574V311.887H346.574ZM345.574 308.098H347.387V306.098H345.574V308.098ZM346.387 307.098V311.887H348.387V307.098H346.387ZM346.387 311.887C346.387 312.449 346.317 312.961 346.186 313.429L348.111 313.971C348.297 313.31 348.387 312.614 348.387 311.887H346.387ZM346.182 313.443C346.064 313.887 345.878 314.263 345.63 314.582L347.211 315.808C347.634 315.263 347.933 314.642 348.115 313.957L346.182 313.443ZM345.629 314.585C345.406 314.873 345.111 315.112 344.722 315.297L345.579 317.104C346.231 316.795 346.783 316.363 347.213 315.806L345.629 314.585ZM344.734 315.291C344.374 315.456 343.901 315.558 343.285 315.558V317.558C344.115 317.558 344.886 317.421 345.567 317.11L344.734 315.291ZM356.913 308.699V309.699C357.465 309.699 357.913 309.251 357.913 308.699H356.913ZM353.909 308.699V307.699C353.357 307.699 352.909 308.146 352.909 308.699H353.909ZM353.909 316.492V317.492C354.462 317.492 354.909 317.044 354.909 316.492H353.909ZM352.097 316.492H351.097C351.097 317.044 351.544 317.492 352.097 317.492V316.492ZM352.097 308.699H353.097C353.097 308.146 352.649 307.699 352.097 307.699V308.699ZM349.093 308.699H348.093C348.093 309.251 348.541 309.699 349.093 309.699V308.699ZM349.093 307.098V306.098C348.541 306.098 348.093 306.545 348.093 307.098H349.093ZM356.913 307.098H357.913C357.913 306.545 357.465 306.098 356.913 306.098V307.098ZM356.913 307.699H353.909V309.699H356.913V307.699ZM352.909 308.699V316.492H354.909V308.699H352.909ZM353.909 315.492H352.097V317.492H353.909V315.492ZM353.097 316.492V308.699H351.097V316.492H353.097ZM352.097 307.699H349.093V309.699H352.097V307.699ZM350.093 308.699V307.098H348.093V308.699H350.093ZM349.093 308.098H356.913V306.098H349.093V308.098ZM355.913 307.098V308.699H357.913V307.098H355.913ZM365.263 314.891H366.263C366.263 314.338 365.816 313.891 365.263 313.891V314.891ZM365.263 316.492V317.492C365.816 317.492 366.263 317.044 366.263 316.492H365.263ZM358.741 316.492H357.741C357.741 317.044 358.188 317.492 358.741 317.492V316.492ZM358.741 307.098V306.098C358.188 306.098 357.741 306.545 357.741 307.098H358.741ZM365.144 307.098H366.144C366.144 306.545 365.697 306.098 365.144 306.098V307.098ZM365.144 308.699V309.699C365.697 309.699 366.144 309.251 366.144 308.699H365.144ZM360.566 308.699V307.699C360.014 307.699 359.566 308.146 359.566 308.699H360.566ZM360.566 310.961H359.566C359.566 311.513 360.014 311.961 360.566 311.961V310.961ZM364.523 310.961H365.523C365.523 310.409 365.075 309.961 364.523 309.961V310.961ZM364.523 312.443V313.443C365.075 313.443 365.523 312.995 365.523 312.443H364.523ZM360.566 312.443V311.443C360.014 311.443 359.566 311.891 359.566 312.443H360.566ZM360.566 314.891H359.566C359.566 315.443 360.014 315.891 360.566 315.891V314.891ZM364.263 314.891V316.492H366.263V314.891H364.263ZM365.263 315.492H358.741V317.492H365.263V315.492ZM359.741 316.492V307.098H357.741V316.492H359.741ZM358.741 308.098H365.144V306.098H358.741V308.098ZM364.144 307.098V308.699H366.144V307.098H364.144ZM365.144 307.699H360.566V309.699H365.144V307.699ZM359.566 308.699V310.961H361.566V308.699H359.566ZM360.566 311.961H364.523V309.961H360.566V311.961ZM363.523 310.961V312.443H365.523V310.961H363.523ZM364.523 311.443H360.566V313.443H364.523V311.443ZM359.566 312.443V314.891H361.566V312.443H359.566ZM360.566 315.891H365.263V313.891H360.566V315.891ZM372.945 309.559L372.202 310.228C372.419 310.469 372.74 310.59 373.062 310.552C373.384 310.514 373.668 310.322 373.823 310.037L372.945 309.559ZM372.442 309.215L371.937 310.077C371.944 310.082 371.952 310.086 371.959 310.09L372.442 309.215ZM371.516 308.818L371.186 309.762C371.195 309.765 371.205 309.768 371.214 309.771L371.516 308.818ZM369.876 310.683L369.559 311.632L369.876 310.683ZM371.066 311.027L370.815 311.995L370.817 311.996L371.066 311.027ZM372.667 311.583L372.241 312.488L372.248 312.491L372.667 311.583ZM373.713 312.43L372.884 312.989C372.889 312.997 372.895 313.005 372.9 313.013L373.713 312.43ZM373.593 315.433L372.808 314.815L372.806 314.817L373.593 315.433ZM372.323 316.32L371.993 315.376L372.323 316.32ZM368.5 316.28L368.194 317.232C368.199 317.234 368.204 317.235 368.209 317.237L368.5 316.28ZM366.66 315.38L365.771 314.924C365.543 315.368 365.677 315.911 366.084 316.198L366.66 315.38ZM367.468 313.806L368.175 313.099C367.949 312.873 367.628 312.768 367.312 312.818C366.997 312.868 366.723 313.065 366.578 313.35L367.468 313.806ZM367.891 314.123L367.345 314.961C367.353 314.967 367.362 314.972 367.371 314.978L367.891 314.123ZM368.632 314.507L368.218 315.417C368.226 315.421 368.234 315.424 368.241 315.428L368.632 314.507ZM369.584 314.825L369.336 315.793L369.584 314.825ZM371.834 313.329L371.197 314.1L371.834 313.329ZM370.974 312.906L370.671 313.859L370.678 313.861L370.974 312.906ZM369.704 312.522L369.983 311.562L369.973 311.559L369.704 312.522ZM368.208 311.967L367.73 312.845C367.737 312.849 367.745 312.853 367.753 312.857L368.208 311.967ZM367.335 311.186L366.482 311.708L366.489 311.718L367.335 311.186ZM367.494 308.368L366.675 307.794L366.672 307.798L367.494 308.368ZM368.738 307.376L369.128 308.296C369.132 308.294 369.137 308.293 369.141 308.291L368.738 307.376ZM373.752 308.077L374.63 308.555C374.877 308.102 374.739 307.536 374.311 307.248L373.752 308.077ZM373.688 308.89C373.484 308.662 373.177 308.478 372.925 308.339L371.959 310.09C372.07 310.151 372.146 310.198 372.195 310.232C372.219 310.248 372.231 310.258 372.234 310.26C372.239 310.264 372.225 310.253 372.202 310.228L373.688 308.89ZM372.948 308.352C372.613 308.156 372.232 307.996 371.818 307.865L371.214 309.771C371.523 309.869 371.76 309.974 371.937 310.077L372.948 308.352ZM371.847 307.874C371.386 307.713 370.908 307.633 370.418 307.633V309.633C370.687 309.633 370.941 309.676 371.186 309.762L371.847 307.874ZM370.418 307.633C369.832 307.633 369.214 307.731 368.719 308.081C368.161 308.476 367.923 309.072 367.923 309.691H369.923C369.923 309.632 369.933 309.628 369.921 309.654C369.907 309.685 369.884 309.706 369.875 309.713C369.871 309.716 369.901 309.694 369.994 309.672C370.087 309.65 370.225 309.633 370.418 309.633V307.633ZM367.923 309.691C367.923 310.171 368.081 310.655 368.474 311.027L369.848 309.573C369.875 309.599 369.899 309.634 369.914 309.671C369.927 309.704 369.923 309.716 369.923 309.691H367.923ZM368.474 311.027C368.78 311.316 369.17 311.502 369.559 311.632L370.192 309.735C369.946 309.653 369.859 309.584 369.848 309.573L368.474 311.027ZM369.559 311.632C369.906 311.747 370.326 311.868 370.815 311.995L371.317 310.059C370.854 309.939 370.48 309.831 370.192 309.735L369.559 311.632ZM370.817 311.996C371.39 312.143 371.862 312.309 372.242 312.488L373.093 310.678C372.573 310.434 371.978 310.229 371.315 310.059L370.817 311.996ZM372.248 312.491C372.572 312.641 372.765 312.814 372.884 312.989L374.541 311.87C374.183 311.34 373.68 310.949 373.086 310.675L372.248 312.491ZM372.9 313.013C372.989 313.136 373.083 313.369 373.083 313.806H375.083C375.083 313.096 374.93 312.411 374.525 311.847L372.9 313.013ZM373.083 313.806C373.083 314.313 372.961 314.619 372.808 314.815L374.379 316.052C374.878 315.418 375.083 314.639 375.083 313.806H373.083ZM372.806 314.817C372.617 315.059 372.358 315.248 371.993 315.376L372.654 317.264C373.347 317.021 373.935 316.619 374.381 316.05L372.806 314.817ZM371.993 315.376C371.58 315.52 371.12 315.598 370.603 315.598V317.598C371.322 317.598 372.008 317.49 372.654 317.264L371.993 315.376ZM370.603 315.598C369.999 315.598 369.396 315.507 368.79 315.323L368.209 317.237C368.997 317.476 369.796 317.598 370.603 317.598V315.598ZM368.805 315.328C368.204 315.135 367.684 314.878 367.237 314.563L366.084 316.198C366.713 316.641 367.419 316.984 368.194 317.232L368.805 315.328ZM367.55 315.836L368.357 314.262L366.578 313.35L365.771 314.924L367.55 315.836ZM366.76 314.513C366.918 314.671 367.134 314.824 367.345 314.961L368.437 313.286C368.348 313.227 368.281 313.181 368.233 313.145C368.181 313.106 368.168 313.092 368.175 313.099L366.76 314.513ZM367.371 314.978C367.617 315.128 367.902 315.274 368.218 315.417L369.046 313.597C368.779 313.476 368.57 313.366 368.411 313.269L367.371 314.978ZM368.241 315.428C368.584 315.573 368.949 315.694 369.336 315.793L369.833 313.856C369.532 313.779 369.262 313.688 369.022 313.586L368.241 315.428ZM369.336 315.793C369.761 315.902 370.193 315.957 370.63 315.957V313.957C370.361 313.957 370.096 313.923 369.833 313.856L369.336 315.793ZM370.63 315.957C371.207 315.957 371.812 315.87 372.3 315.558C372.865 315.196 373.138 314.622 373.138 313.991H371.138C371.138 314.021 371.133 313.998 371.157 313.952C371.182 313.903 371.215 313.878 371.222 313.873C371.222 313.873 371.185 313.896 371.081 313.919C370.978 313.941 370.831 313.957 370.63 313.957V315.957ZM373.138 313.991C373.138 313.433 372.914 312.924 372.471 312.559L371.197 314.1C371.196 314.1 371.189 314.094 371.18 314.082C371.171 314.07 371.161 314.055 371.153 314.038C371.137 314.002 371.138 313.98 371.138 313.991H373.138ZM372.471 312.559C372.131 312.278 371.711 312.087 371.269 311.951L370.678 313.861C370.978 313.954 371.13 314.046 371.197 314.1L372.471 312.559ZM371.276 311.953C370.905 311.835 370.473 311.705 369.983 311.562L369.424 313.483C369.904 313.622 370.319 313.748 370.671 313.859L371.276 311.953ZM369.973 311.559C369.414 311.403 368.983 311.239 368.664 311.076L367.753 312.857C368.228 313.1 368.794 313.306 369.434 313.486L369.973 311.559ZM368.687 311.089C368.418 310.942 368.267 310.79 368.182 310.654L366.489 311.718C366.791 312.2 367.223 312.568 367.73 312.845L368.687 311.089ZM368.189 310.665C368.115 310.545 368.044 310.338 368.044 309.982H366.044C366.044 310.596 366.167 311.192 366.482 311.708L368.189 310.665ZM368.044 309.982C368.044 309.496 368.156 309.168 368.316 308.938L366.672 307.798C366.233 308.432 366.044 309.181 366.044 309.982H368.044ZM368.313 308.941C368.509 308.662 368.771 308.447 369.128 308.296L368.348 306.455C367.663 306.745 367.097 307.192 366.675 307.794L368.313 308.941ZM369.141 308.291C369.52 308.124 369.958 308.032 370.471 308.032V306.032C369.713 306.032 368.996 306.169 368.334 306.46L369.141 308.291ZM370.471 308.032C371.014 308.032 371.502 308.119 371.946 308.285L372.648 306.413C371.962 306.156 371.234 306.032 370.471 306.032V308.032ZM371.946 308.285C372.453 308.476 372.865 308.685 373.193 308.906L374.311 307.248C373.828 306.922 373.269 306.646 372.648 306.413L371.946 308.285ZM372.874 307.599L372.067 309.08L373.823 310.037L374.63 308.555L372.874 307.599Z" fill="#323A45"/>
<path d="M307.577 214.966V221H305.751V211.606H307.207L312.062 217.798V211.619H313.888V221H312.367L307.577 214.966ZM322.365 219.399V221H315.842V211.606H322.246V213.207H317.668V215.469H321.624V216.951H317.668V219.399H322.365ZM324.768 211.606L327.096 215.072L329.412 211.606H331.396L328.142 216.369L331.291 221H329.306L327.096 217.666L324.874 221H322.876L326.025 216.369L322.77 211.606H324.768ZM339.368 213.207H336.364V221H334.552V213.207H331.548V211.606H339.368V213.207ZM349.963 213.207H346.96V221H345.147V213.207H342.144V211.606H349.963V213.207ZM351.129 221V211.606H355.284C355.716 211.606 356.113 211.694 356.475 211.87C356.845 212.047 357.163 212.285 357.427 212.585C357.701 212.885 357.908 213.22 358.049 213.59C358.199 213.961 358.274 214.34 358.274 214.728C358.274 215.328 358.12 215.879 357.811 216.382C357.511 216.885 357.101 217.247 356.58 217.467L358.724 221H356.713L354.781 217.851H352.955V221H351.129ZM352.955 216.25H355.244C355.588 216.25 355.87 216.104 356.091 215.813C356.32 215.513 356.435 215.152 356.435 214.728C356.435 214.437 356.373 214.177 356.25 213.948C356.126 213.718 355.967 213.537 355.773 213.405C355.588 213.273 355.385 213.207 355.165 213.207H352.955V216.25ZM362.482 211.606H364.334L367.788 221H365.909L365.035 218.658H361.754L360.894 221H359.015L362.482 211.606ZM364.705 217.374L363.408 213.498L362.059 217.374H364.705ZM368.818 221V211.606H370.644V221H368.818ZM374.43 214.966V221H372.604V211.606H374.059L378.915 217.798V211.619H380.741V221H379.219L374.43 214.966Z" fill="white"/>
<path d="M307.577 214.966L308.36 214.345C308.096 214.012 307.649 213.882 307.248 214.022C306.846 214.162 306.577 214.541 306.577 214.966H307.577ZM307.577 221V222C308.129 222 308.577 221.552 308.577 221H307.577ZM305.751 221H304.751C304.751 221.552 305.199 222 305.751 222V221ZM305.751 211.606V210.606C305.199 210.606 304.751 211.053 304.751 211.606H305.751ZM307.207 211.606L307.993 210.989C307.804 210.747 307.514 210.606 307.207 210.606V211.606ZM312.062 217.798L311.275 218.415C311.539 218.751 311.986 218.882 312.389 218.743C312.792 218.604 313.062 218.224 313.062 217.798H312.062ZM312.062 211.619V210.619C311.51 210.619 311.062 211.067 311.062 211.619H312.062ZM313.888 211.619H314.888C314.888 211.067 314.44 210.619 313.888 210.619V211.619ZM313.888 221V222C314.44 222 314.888 221.552 314.888 221H313.888ZM312.367 221L311.583 221.622C311.773 221.86 312.062 222 312.367 222V221ZM306.577 214.966V221H308.577V214.966H306.577ZM307.577 220H305.751V222H307.577V220ZM306.751 221V211.606H304.751V221H306.751ZM305.751 212.606H307.207V210.606H305.751V212.606ZM306.42 212.223L311.275 218.415L312.849 217.181L307.993 210.989L306.42 212.223ZM313.062 217.798V211.619H311.062V217.798H313.062ZM312.062 212.619H313.888V210.619H312.062V212.619ZM312.888 211.619V221H314.888V211.619H312.888ZM313.888 220H312.367V222H313.888V220ZM313.15 220.378L308.36 214.345L306.794 215.588L311.583 221.622L313.15 220.378ZM322.365 219.399H323.365C323.365 218.847 322.917 218.399 322.365 218.399V219.399ZM322.365 221V222C322.917 222 323.365 221.552 323.365 221H322.365ZM315.842 221H314.842C314.842 221.552 315.29 222 315.842 222V221ZM315.842 211.606V210.606C315.29 210.606 314.842 211.053 314.842 211.606H315.842ZM322.246 211.606H323.246C323.246 211.053 322.798 210.606 322.246 210.606V211.606ZM322.246 213.207V214.207C322.798 214.207 323.246 213.759 323.246 213.207H322.246ZM317.668 213.207V212.207C317.116 212.207 316.668 212.654 316.668 213.207H317.668ZM317.668 215.469H316.668C316.668 216.021 317.116 216.469 317.668 216.469V215.469ZM321.624 215.469H322.624C322.624 214.917 322.177 214.469 321.624 214.469V215.469ZM321.624 216.951V217.951C322.177 217.951 322.624 217.503 322.624 216.951H321.624ZM317.668 216.951V215.951C317.116 215.951 316.668 216.399 316.668 216.951H317.668ZM317.668 219.399H316.668C316.668 219.951 317.116 220.399 317.668 220.399V219.399ZM321.365 219.399V221H323.365V219.399H321.365ZM322.365 220H315.842V222H322.365V220ZM316.842 221V211.606H314.842V221H316.842ZM315.842 212.606H322.246V210.606H315.842V212.606ZM321.246 211.606V213.207H323.246V211.606H321.246ZM322.246 212.207H317.668V214.207H322.246V212.207ZM316.668 213.207V215.469H318.668V213.207H316.668ZM317.668 216.469H321.624V214.469H317.668V216.469ZM320.624 215.469V216.951H322.624V215.469H320.624ZM321.624 215.951H317.668V217.951H321.624V215.951ZM316.668 216.951V219.399H318.668V216.951H316.668ZM317.668 220.399H322.365V218.399H317.668V220.399ZM324.768 211.606L325.598 211.048C325.412 210.772 325.101 210.606 324.768 210.606V211.606ZM327.096 215.072L326.266 215.63C326.452 215.907 326.764 216.073 327.098 216.072C327.431 216.072 327.743 215.905 327.928 215.628L327.096 215.072ZM329.412 211.606V210.606C329.078 210.606 328.766 210.773 328.58 211.05L329.412 211.606ZM331.396 211.606L332.222 212.17C332.431 211.864 332.454 211.467 332.281 211.139C332.108 210.811 331.767 210.606 331.396 210.606V211.606ZM328.142 216.369L327.316 215.805C327.084 216.144 327.084 216.591 327.315 216.931L328.142 216.369ZM331.291 221V222C331.661 222 332.001 221.795 332.174 221.468C332.348 221.14 332.326 220.744 332.118 220.437L331.291 221ZM329.306 221L328.472 221.552C328.658 221.832 328.971 222 329.306 222V221ZM327.096 217.666L327.93 217.113C327.745 216.834 327.433 216.666 327.098 216.666C326.763 216.665 326.45 216.832 326.264 217.111L327.096 217.666ZM324.874 221V222C325.208 222 325.52 221.833 325.706 221.554L324.874 221ZM322.876 221L322.049 220.437C321.841 220.744 321.819 221.14 321.992 221.468C322.165 221.795 322.505 222 322.876 222V221ZM326.025 216.369L326.852 216.931C327.083 216.591 327.082 216.144 326.85 215.805L326.025 216.369ZM322.77 211.606V210.606C322.399 210.606 322.059 210.811 321.886 211.139C321.712 211.467 321.735 211.864 321.944 212.17L322.77 211.606ZM323.938 212.163L326.266 215.63L327.927 214.515L325.598 211.048L323.938 212.163ZM327.928 215.628L330.243 212.161L328.58 211.05L326.265 214.517L327.928 215.628ZM329.412 212.606H331.396V210.606H329.412V212.606ZM330.571 211.042L327.316 215.805L328.967 216.933L332.222 212.17L330.571 211.042ZM327.315 216.931L330.464 221.562L332.118 220.437L328.969 215.807L327.315 216.931ZM331.291 220H329.306V222H331.291V220ZM330.14 220.447L327.93 217.113L326.263 218.218L328.472 221.552L330.14 220.447ZM326.264 217.111L324.042 220.445L325.706 221.554L327.928 218.22L326.264 217.111ZM324.874 220H322.876V222H324.874V220ZM323.703 221.562L326.852 216.931L325.198 215.807L322.049 220.437L323.703 221.562ZM326.85 215.805L323.596 211.042L321.944 212.17L325.199 216.933L326.85 215.805ZM322.77 212.606H324.768V210.606H322.77V212.606ZM339.368 213.207V214.207C339.92 214.207 340.368 213.759 340.368 213.207H339.368ZM336.364 213.207V212.207C335.812 212.207 335.364 212.654 335.364 213.207H336.364ZM336.364 221V222C336.917 222 337.364 221.552 337.364 221H336.364ZM334.552 221H333.552C333.552 221.552 334 222 334.552 222V221ZM334.552 213.207H335.552C335.552 212.654 335.104 212.207 334.552 212.207V213.207ZM331.548 213.207H330.548C330.548 213.759 330.996 214.207 331.548 214.207V213.207ZM331.548 211.606V210.606C330.996 210.606 330.548 211.053 330.548 211.606H331.548ZM339.368 211.606H340.368C340.368 211.053 339.92 210.606 339.368 210.606V211.606ZM339.368 212.207H336.364V214.207H339.368V212.207ZM335.364 213.207V221H337.364V213.207H335.364ZM336.364 220H334.552V222H336.364V220ZM335.552 221V213.207H333.552V221H335.552ZM334.552 212.207H331.548V214.207H334.552V212.207ZM332.548 213.207V211.606H330.548V213.207H332.548ZM331.548 212.606H339.368V210.606H331.548V212.606ZM338.368 211.606V213.207H340.368V211.606H338.368ZM349.963 213.207V214.207C350.515 214.207 350.963 213.759 350.963 213.207H349.963ZM346.96 213.207V212.207C346.407 212.207 345.96 212.654 345.96 213.207H346.96ZM346.96 221V222C347.512 222 347.96 221.552 347.96 221H346.96ZM345.147 221H344.147C344.147 221.552 344.595 222 345.147 222V221ZM345.147 213.207H346.147C346.147 212.654 345.699 212.207 345.147 212.207V213.207ZM342.144 213.207H341.144C341.144 213.759 341.591 214.207 342.144 214.207V213.207ZM342.144 211.606V210.606C341.591 210.606 341.144 211.053 341.144 211.606H342.144ZM349.963 211.606H350.963C350.963 211.053 350.515 210.606 349.963 210.606V211.606ZM349.963 212.207H346.96V214.207H349.963V212.207ZM345.96 213.207V221H347.96V213.207H345.96ZM346.96 220H345.147V222H346.96V220ZM346.147 221V213.207H344.147V221H346.147ZM345.147 212.207H342.144V214.207H345.147V212.207ZM343.144 213.207V211.606H341.144V213.207H343.144ZM342.144 212.606H349.963V210.606H342.144V212.606ZM348.963 211.606V213.207H350.963V211.606H348.963ZM351.129 221H350.129C350.129 221.552 350.577 222 351.129 222V221ZM351.129 211.606V210.606C350.577 210.606 350.129 211.053 350.129 211.606H351.129ZM356.475 211.87L356.036 212.769L356.045 212.773L356.475 211.87ZM357.427 212.585L356.677 213.246C356.681 213.251 356.685 213.255 356.688 213.259L357.427 212.585ZM358.049 213.59L357.115 213.946C357.117 213.953 357.119 213.959 357.122 213.966L358.049 213.59ZM357.811 216.382L356.959 215.859L356.952 215.87L357.811 216.382ZM356.58 217.467L356.19 216.546C355.923 216.66 355.718 216.884 355.629 217.16C355.54 217.436 355.575 217.738 355.725 217.986L356.58 217.467ZM358.724 221V222C359.085 222 359.418 221.805 359.595 221.49C359.772 221.176 359.766 220.79 359.579 220.481L358.724 221ZM356.713 221L355.86 221.523C356.042 221.819 356.365 222 356.713 222V221ZM354.781 217.851L355.633 217.328C355.452 217.031 355.129 216.851 354.781 216.851V217.851ZM352.955 217.851V216.851C352.403 216.851 351.955 217.299 351.955 217.851H352.955ZM352.955 221V222C353.507 222 353.955 221.552 353.955 221H352.955ZM352.955 216.25H351.955C351.955 216.802 352.403 217.25 352.955 217.25V216.25ZM356.091 215.813L355.296 215.206L355.294 215.209L356.091 215.813ZM356.25 213.948L357.13 213.474V213.474L356.25 213.948ZM355.773 213.405L355.192 214.219C355.198 214.223 355.204 214.227 355.21 214.231L355.773 213.405ZM352.955 213.207V212.207C352.403 212.207 351.955 212.654 351.955 213.207H352.955ZM352.129 221V211.606H350.129V221H352.129ZM351.129 212.606H355.284V210.606H351.129V212.606ZM355.284 212.606C355.576 212.606 355.821 212.664 356.036 212.769L356.913 210.972C356.405 210.724 355.856 210.606 355.284 210.606V212.606ZM356.045 212.773C356.296 212.893 356.504 213.05 356.677 213.246L358.177 211.923C357.821 211.52 357.394 211.2 356.904 210.968L356.045 212.773ZM356.688 213.259C356.879 213.468 357.019 213.696 357.115 213.946L358.984 213.234C358.797 212.744 358.522 212.301 358.166 211.911L356.688 213.259ZM357.122 213.966C357.225 214.22 357.274 214.473 357.274 214.728H359.274C359.274 214.208 359.173 213.701 358.976 213.215L357.122 213.966ZM357.274 214.728C357.274 215.147 357.169 215.516 356.959 215.859L358.663 216.905C359.07 216.242 359.274 215.51 359.274 214.728H357.274ZM356.952 215.87C356.757 216.197 356.508 216.412 356.19 216.546L356.971 218.388C357.694 218.081 358.265 217.573 358.67 216.894L356.952 215.87ZM355.725 217.986L357.869 221.518L359.579 220.481L357.435 216.948L355.725 217.986ZM358.724 220H356.713V222H358.724V220ZM357.565 220.477L355.633 217.328L353.929 218.374L355.86 221.523L357.565 220.477ZM354.781 216.851H352.955V218.851H354.781V216.851ZM351.955 217.851V221H353.955V217.851H351.955ZM352.955 220H351.129V222H352.955V220ZM352.955 217.25H355.244V215.25H352.955V217.25ZM355.244 217.25C355.923 217.25 356.492 216.94 356.888 216.417L355.294 215.209C355.276 215.232 355.264 215.244 355.258 215.249C355.253 215.254 355.252 215.254 355.255 215.252C355.259 215.25 355.263 215.249 355.264 215.249C355.265 215.248 355.259 215.25 355.244 215.25V217.25ZM356.885 216.421C357.264 215.925 357.435 215.343 357.435 214.728H355.435C355.435 214.96 355.376 215.101 355.296 215.206L356.885 216.421ZM357.435 214.728C357.435 214.291 357.341 213.865 357.13 213.474L355.369 214.422C355.405 214.489 355.435 214.583 355.435 214.728H357.435ZM357.13 213.474C356.939 213.119 356.677 212.811 356.337 212.579L355.21 214.231C355.258 214.264 355.313 214.318 355.369 214.422L357.13 213.474ZM356.355 212.591C356.006 212.342 355.601 212.207 355.165 212.207V214.207C355.17 214.207 355.172 214.207 355.172 214.207C355.173 214.207 355.172 214.207 355.172 214.207C355.172 214.207 355.173 214.207 355.176 214.209C355.179 214.21 355.184 214.213 355.192 214.219L356.355 212.591ZM355.165 212.207H352.955V214.207H355.165V212.207ZM351.955 213.207V216.25H353.955V213.207H351.955ZM362.482 211.606V210.606C362.063 210.606 361.689 210.867 361.544 211.26L362.482 211.606ZM364.334 211.606L365.273 211.261C365.128 210.867 364.753 210.606 364.334 210.606V211.606ZM367.788 221V222C368.114 222 368.421 221.84 368.608 221.572C368.795 221.304 368.839 220.961 368.726 220.655L367.788 221ZM365.909 221L364.972 221.349C365.118 221.74 365.491 222 365.909 222V221ZM365.035 218.658L365.972 218.308C365.827 217.917 365.453 217.658 365.035 217.658V218.658ZM361.754 218.658V217.658C361.335 217.658 360.96 217.92 360.815 218.313L361.754 218.658ZM360.894 221V222C361.314 222 361.688 221.738 361.833 221.344L360.894 221ZM359.015 221L358.077 220.654C357.964 220.96 358.008 221.303 358.195 221.572C358.382 221.84 358.688 222 359.015 222V221ZM364.705 217.374V218.374C365.026 218.374 365.328 218.22 365.516 217.959C365.704 217.698 365.755 217.362 365.653 217.057L364.705 217.374ZM363.408 213.498L364.356 213.181C364.221 212.775 363.842 212.5 363.414 212.498C362.986 212.495 362.604 212.765 362.464 213.169L363.408 213.498ZM362.059 217.374L361.114 217.046C361.008 217.351 361.056 217.69 361.243 217.954C361.431 218.218 361.735 218.374 362.059 218.374V217.374ZM362.482 212.606H364.334V210.606H362.482V212.606ZM363.396 211.951L366.849 221.345L368.726 220.655L365.273 211.261L363.396 211.951ZM367.788 220H365.909V222H367.788V220ZM366.846 220.65L365.972 218.308L364.099 219.007L364.972 221.349L366.846 220.65ZM365.035 217.658H361.754V219.658H365.035V217.658ZM360.815 218.313L359.955 220.655L361.833 221.344L362.693 219.003L360.815 218.313ZM360.894 220H359.015V222H360.894V220ZM359.954 221.346L363.42 211.952L361.544 211.26L358.077 220.654L359.954 221.346ZM365.653 217.057L364.356 213.181L362.46 213.815L363.756 217.692L365.653 217.057ZM362.464 213.169L361.114 217.046L363.003 217.703L364.352 213.827L362.464 213.169ZM362.059 218.374H364.705V216.374H362.059V218.374ZM368.818 221H367.818C367.818 221.552 368.266 222 368.818 222V221ZM368.818 211.606V210.606C368.266 210.606 367.818 211.053 367.818 211.606H368.818ZM370.644 211.606H371.644C371.644 211.053 371.196 210.606 370.644 210.606V211.606ZM370.644 221V222C371.196 222 371.644 221.552 371.644 221H370.644ZM369.818 221V211.606H367.818V221H369.818ZM368.818 212.606H370.644V210.606H368.818V212.606ZM369.644 211.606V221H371.644V211.606H369.644ZM370.644 220H368.818V222H370.644V220ZM374.43 214.966L375.213 214.345C374.948 214.012 374.502 213.882 374.1 214.022C373.699 214.162 373.43 214.541 373.43 214.966H374.43ZM374.43 221V222C374.982 222 375.43 221.552 375.43 221H374.43ZM372.604 221H371.604C371.604 221.552 372.051 222 372.604 222V221ZM372.604 211.606V210.606C372.051 210.606 371.604 211.053 371.604 211.606H372.604ZM374.059 211.606L374.846 210.989C374.656 210.747 374.366 210.606 374.059 210.606V211.606ZM378.915 217.798L378.128 218.415C378.391 218.751 378.838 218.882 379.241 218.743C379.644 218.604 379.915 218.224 379.915 217.798H378.915ZM378.915 211.619V210.619C378.363 210.619 377.915 211.067 377.915 211.619H378.915ZM380.741 211.619H381.741C381.741 211.067 381.293 210.619 380.741 210.619V211.619ZM380.741 221V222C381.293 222 381.741 221.552 381.741 221H380.741ZM379.219 221L378.436 221.622C378.626 221.86 378.914 222 379.219 222V221ZM373.43 214.966V221H375.43V214.966H373.43ZM374.43 220H372.604V222H374.43V220ZM373.604 221V211.606H371.604V221H373.604ZM372.604 212.606H374.059V210.606H372.604V212.606ZM373.272 212.223L378.128 218.415L379.702 217.181L374.846 210.989L373.272 212.223ZM379.915 217.798V211.619H377.915V217.798H379.915ZM378.915 212.619H380.741V210.619H378.915V212.619ZM379.741 211.619V221H381.741V211.619H379.741ZM380.741 220H379.219V222H380.741V220ZM380.002 220.378L375.213 214.345L373.646 215.588L378.436 221.622L380.002 220.378Z" fill="#323A45"/>
<g filter="url(#filter4_i)">
<path d="M343.5 131C392.5 131 401 174 401 174H287C287 174 294.5 131 343.5 131Z" fill="#E5E9EC"/>
</g>
<path d="M343.5 131.5C367.827 131.5 382.061 142.163 390.228 152.804C394.318 158.133 396.89 163.463 398.44 167.462C399.215 169.461 399.733 171.125 400.057 172.287C400.198 172.79 400.302 173.199 400.374 173.5H287.611C287.677 173.198 287.772 172.785 287.902 172.276C288.2 171.114 288.679 169.451 289.407 167.452C290.864 163.455 293.312 158.126 297.276 152.799C305.192 142.162 319.174 131.5 343.5 131.5Z" stroke="#323A45" stroke-linecap="round" stroke-linejoin="round"/>
<rect x="265.5" y="257.5" width="9" height="41" fill="#E5E9EC" stroke="#323A45"/>
<rect x="244.5" y="209.5" width="50.6154" height="60" rx="4.19231" fill="#ED9F2E" stroke="#323A45"/>
<path fill-rule="evenodd" clip-rule="evenodd" d="M269.807 217.878H278.476C281.527 217.878 284 220.351 284 223.402V248.87C284 251.634 281.97 253.924 279.32 254.33V254.394V257.385V259.687H281.913V261.836H279.32V264.137H281.913V266.286H279.32H276.329H269.808H263.287L260.295 266.286H257.702V264.138H260.295V261.836H257.702V259.688H260.295V257.386V254.394V254.331C257.645 253.924 255.615 251.635 255.615 248.871V223.402C255.615 220.351 258.088 217.878 261.139 217.878H269.807ZM258.93 247.988C258.93 249.662 260.287 251.019 261.96 251.019C263.634 251.019 264.991 249.662 264.991 247.988C264.991 246.315 263.634 244.959 261.96 244.959C260.287 244.959 258.93 246.315 258.93 247.988ZM269.807 264.137H276.329V261.836H269.808H263.287V264.137H269.807ZM269.807 259.688H276.329V257.386H269.808H263.287V259.688H269.807ZM274.625 247.988C274.625 249.662 275.981 251.019 277.655 251.019C279.328 251.019 280.684 249.662 280.684 247.988C280.684 246.315 279.328 244.959 277.655 244.959C275.981 244.959 274.625 246.315 274.625 247.988ZM261.633 223.363C260.661 223.363 259.873 224.151 259.873 225.123V237.215C259.873 238.187 260.661 238.975 261.633 238.975H277.983C278.954 238.975 279.742 238.187 279.742 237.215V225.123C279.742 224.151 278.954 223.363 277.983 223.363H261.633Z" fill="#323A45"/>
<path d="M267.276 217.111C268.293 217.111 269.117 216.286 269.117 215.269C269.117 214.253 268.293 213.428 267.276 213.428C266.259 213.428 265.435 214.253 265.435 215.269C265.435 216.286 266.259 217.111 267.276 217.111Z" fill="#323A45"/>
<path d="M272.339 217.111C273.356 217.111 274.18 216.286 274.18 215.269C274.18 214.253 273.356 213.428 272.339 213.428C271.322 213.428 270.498 214.253 270.498 215.269C270.498 216.286 271.322 217.111 272.339 217.111Z" fill="#323A45"/>
</g>
<defs>
<filter id="filter0_d" x="0.626204" y="92.3402" width="294.848" height="293.082" filterUnits="userSpaceOnUse" color-interpolation-filters="sRGB">
<feFlood flood-opacity="0" result="BackgroundImageFix"/>
<feColorMatrix in="SourceAlpha" type="matrix" values="0 0 0 0 0 0 0 0 0 0 0 0 0 0 0 0 0 0 127 0"/>
<feOffset dy="3.60577"/>
<feGaussianBlur stdDeviation="5.40865"/>
<feColorMatrix type="matrix" values="0 0 0 0 0 0 0 0 0 0 0 0 0 0 0 0 0 0 0.15 0"/>
<feBlend mode="normal" in2="BackgroundImageFix" result="effect1_dropShadow"/>
<feBlend mode="normal" in="SourceGraphic" in2="effect1_dropShadow" result="shape"/>
</filter>
<filter id="filter1_i" x="41.9944" y="162.216" width="108.613" height="143.19" filterUnits="userSpaceOnUse" color-interpolation-filters="sRGB">
<feFlood flood-opacity="0" result="BackgroundImageFix"/>
<feBlend mode="normal" in="SourceGraphic" in2="BackgroundImageFix" result="shape"/>
<feColorMatrix in="SourceAlpha" type="matrix" values="0 0 0 0 0 0 0 0 0 0 0 0 0 0 0 0 0 0 127 0" result="hardAlpha"/>
<feOffset dy="6"/>
<feComposite in2="hardAlpha" operator="arithmetic" k2="-1" k3="1"/>
<feColorMatrix type="matrix" values="0 0 0 0 1 0 0 0 0 1 0 0 0 0 1 0 0 0 0.1 0"/>
<feBlend mode="normal" in2="shape" result="effect1_innerShadow"/>
</filter>
<filter id="filter2_d" x="47.2722" y="20.7885" width="278.051" height="194.874" filterUnits="userSpaceOnUse" color-interpolation-filters="sRGB">
<feFlood flood-opacity="0" result="BackgroundImageFix"/>
<feColorMatrix in="SourceAlpha" type="matrix" values="0 0 0 0 0 0 0 0 0 0 0 0 0 0 0 0 0 0 127 0"/>
<feOffset dy="3.60577"/>
<feGaussianBlur stdDeviation="5.40865"/>
<feColorMatrix type="matrix" values="0 0 0 0 0 0 0 0 0 0 0 0 0 0 0 0 0 0 0.25 0"/>
<feBlend mode="normal" in2="BackgroundImageFix" result="effect1_dropShadow"/>
<feBlend mode="normal" in="SourceGraphic" in2="effect1_dropShadow" result="shape"/>
</filter>
<filter id="filter3_d" x="223.489" y="96.348" width="177.828" height="292.292" filterUnits="userSpaceOnUse" color-interpolation-filters="sRGB">
<feFlood flood-opacity="0" result="BackgroundImageFix"/>
<feColorMatrix in="SourceAlpha" type="matrix" values="0 0 0 0 0 0 0 0 0 0 0 0 0 0 0 0 0 0 127 0"/>
<feOffset dy="3.60577"/>
<feGaussianBlur stdDeviation="5.40865"/>
<feColorMatrix type="matrix" values="0 0 0 0 0 0 0 0 0 0 0 0 0 0 0 0 0 0 0.25 0"/>
<feBlend mode="normal" in2="BackgroundImageFix" result="effect1_dropShadow"/>
<feBlend mode="normal" in="SourceGraphic" in2="effect1_dropShadow" result="shape"/>
</filter>
<filter id="filter4_i" x="287" y="131" width="114" height="43" filterUnits="userSpaceOnUse" color-interpolation-filters="sRGB">
<feFlood flood-opacity="0" result="BackgroundImageFix"/>
<feBlend mode="normal" in="SourceGraphic" in2="BackgroundImageFix" result="shape"/>
<feColorMatrix in="SourceAlpha" type="matrix" values="0 0 0 0 0 0 0 0 0 0 0 0 0 0 0 0 0 0 127 0" result="hardAlpha"/>
<feOffset dy="7"/>
<feComposite in2="hardAlpha" operator="arithmetic" k2="-1" k3="1"/>
<feColorMatrix type="matrix" values="0 0 0 0 1 0 0 0 0 1 0 0 0 0 1 0 0 0 1 0"/>
<feBlend mode="normal" in2="shape" result="effect1_innerShadow"/>
</filter>
</defs>
</svg>
